<svg width="453" height="42" viewBox="0 0 453 42" fill="none" xmlns="http://www.w3.org/2000/svg">
<mask id="path-1-inside-1_3985_76054" fill="white">
<path d="M421 -163C438.673 -163 453 -148.673 453 -131V10C453 27.6731 438.673 42 421 42L32 42C14.3269 42 0 27.6731 0 10V-131C0 -148.673 14.3269 -163 32 -163L421 -163Z"/>
</mask>
<path d="M421 -163C438.673 -163 453 -148.673 453 -131V10C453 27.6731 438.673 42 421 42L32 42C14.3269 42 0 27.6731 0 10V-131C0 -148.673 14.3269 -163 32 -163L421 -163Z" fill="url(#paint0_linear_3985_76054)"/>
<path d="M421 -163C438.949 -163 453.5 -148.449 453.5 -130.5V10C453.5 27.9492 438.949 42.5 421 42.5V41.5C438.397 41.5 452.5 27.397 452.5 10V-131C452.5 -148.673 438.397 -163 421 -163ZM32 42.5C14.0508 42.5 -0.5 27.9492 -0.5 10V-130.5C-0.5 -148.449 14.0508 -163 32 -163C14.603 -163 0.5 -148.673 0.5 -131V10C0.5 27.397 14.603 41.5 32 41.5V42.5ZM0 -163L453 -163L0 -163ZM453.5 10C453.5 27.9492 438.949 42.5 421 42.5L32 42.5C14.0508 42.5 -0.5 27.9492 -0.5 10H0.5C0.5 27.397 14.603 41.5 32 41.5L421 41.5C438.397 41.5 452.5 27.397 452.5 10H453.5Z" fill="url(#paint1_linear_3985_76054)" fill-opacity="0.6" mask="url(#path-1-inside-1_3985_76054)"/>
<defs>
<linearGradient id="paint0_linear_3985_76054" x1="226.5" y1="-163" x2="226.5" y2="42" gradientUnits="userSpaceOnUse">
<stop stop-color="#191919" stop-opacity="0"/>
<stop offset="1" stop-color="#1E1E1E"/>
</linearGradient>
<linearGradient id="paint1_linear_3985_76054" x1="226.5" y1="-44.1851" x2="226.5" y2="42" gradientUnits="userSpaceOnUse">
<stop stop-color="#333333" stop-opacity="0"/>
<stop offset="1" stop-color="#999999"/>
</linearGradient>
</defs>
</svg>
