<svg width="459" height="86" viewBox="0 0 459 86" fill="none" xmlns="http://www.w3.org/2000/svg">
<mask id="path-1-inside-1_3985_76057" fill="white">
<path d="M427 174.345C444.673 174.345 459 160.018 459 142.345V32.3448C459 14.6717 444.673 0.344849 427 0.344849L32 0.344849C14.3269 0.344849 0 14.6717 0 32.3448V142.345C0 160.018 14.3269 174.345 32 174.345L427 174.345Z"/>
</mask>
<path d="M427 174.345C444.673 174.345 459 160.018 459 142.345V32.3448C459 14.6717 444.673 0.344849 427 0.344849L32 0.344849C14.3269 0.344849 0 14.6717 0 32.3448V142.345C0 160.018 14.3269 174.345 32 174.345L427 174.345Z" fill="url(#paint0_linear_3985_76057)"/>
<path d="M427 174.345C444.949 174.345 459.5 159.794 459.5 141.845V32.3448C459.5 14.3956 444.949 -0.155151 427 -0.155151V0.844849C444.397 0.844849 458.5 14.9479 458.5 32.3448V142.345C458.5 160.018 444.397 174.345 427 174.345ZM32 -0.155151C14.0508 -0.155151 -0.5 14.3956 -0.5 32.3448V141.845C-0.5 159.794 14.0508 174.345 32 174.345C14.603 174.345 0.5 160.018 0.5 142.345V32.3448C0.5 14.9479 14.603 0.844849 32 0.844849V-0.155151ZM0 174.345L459 174.345L0 174.345ZM459.5 32.3448C459.5 14.3956 444.949 -0.155151 427 -0.155151L32 -0.155151C14.0508 -0.155151 -0.5 14.3956 -0.5 32.3448H0.5C0.5 14.9479 14.603 0.844849 32 0.844849L427 0.844849C444.397 0.844849 458.5 14.9479 458.5 32.3448H459.5Z" fill="url(#paint1_linear_3985_76057)" fill-opacity="0.6" mask="url(#path-1-inside-1_3985_76057)"/>
<defs>
<linearGradient id="paint0_linear_3985_76057" x1="229.5" y1="174.345" x2="229.5" y2="0.344849" gradientUnits="userSpaceOnUse">
<stop stop-color="#191919" stop-opacity="0"/>
<stop offset="1" stop-color="#1E1E1E"/>
</linearGradient>
<linearGradient id="paint1_linear_3985_76057" x1="229.5" y1="73.4971" x2="229.5" y2="0.344849" gradientUnits="userSpaceOnUse">
<stop stop-color="#333333" stop-opacity="0"/>
<stop offset="1" stop-color="#999999"/>
</linearGradient>
</defs>
</svg>
