<svg width="219" height="163" viewBox="0 0 219 163" fill="none" xmlns="http://www.w3.org/2000/svg">
<mask id="path-1-inside-1_3985_76059" fill="white">
<path d="M301 -130C318.673 -130 333 -115.673 333 -98V131C333 148.673 318.673 163 301 163H32C14.3269 163 0 148.673 0 131V-98C0 -115.673 14.3269 -130 32 -130L301 -130Z"/>
</mask>
<path d="M301 -130C318.673 -130 333 -115.673 333 -98V131C333 148.673 318.673 163 301 163H32C14.3269 163 0 148.673 0 131V-98C0 -115.673 14.3269 -130 32 -130L301 -130Z" fill="url(#paint0_linear_3985_76059)"/>
<path d="M301 -130C318.949 -130 333.5 -115.449 333.5 -97.5V131C333.5 148.949 318.949 163.5 301 163.5V162.5C318.397 162.5 332.5 148.397 332.5 131V-98C332.5 -115.673 318.397 -130 301 -130ZM32 163.5C14.0508 163.5 -0.5 148.949 -0.5 131V-97.5C-0.5 -115.449 14.0508 -130 32 -130C14.603 -130 0.5 -115.673 0.5 -98V131C0.5 148.397 14.603 162.5 32 162.5V163.5ZM0 -130L333 -130L0 -130ZM333.5 131C333.5 148.949 318.949 163.5 301 163.5H32C14.0508 163.5 -0.5 148.949 -0.5 131H0.5C0.5 148.397 14.603 162.5 32 162.5H301C318.397 162.5 332.5 148.397 332.5 131H333.5Z" fill="url(#paint1_linear_3985_76059)" fill-opacity="0.6" mask="url(#path-1-inside-1_3985_76059)"/>
<defs>
<linearGradient id="paint0_linear_3985_76059" x1="166.5" y1="-130" x2="166.5" y2="163" gradientUnits="userSpaceOnUse">
<stop stop-color="#191919" stop-opacity="0"/>
<stop offset="1" stop-color="#1E1E1E"/>
</linearGradient>
<linearGradient id="paint1_linear_3985_76059" x1="166.5" y1="39.8183" x2="166.5" y2="163" gradientUnits="userSpaceOnUse">
<stop stop-color="#333333" stop-opacity="0"/>
<stop offset="1" stop-color="#999999"/>
</linearGradient>
</defs>
</svg>
