<svg width="219" height="203" viewBox="0 0 219 203" fill="none" xmlns="http://www.w3.org/2000/svg">
<mask id="path-1-inside-1_3985_76061" fill="white">
<path d="M293 301C293 318.673 278.673 333 261 333L32 333C14.3269 333 0 318.673 0 301L0 32C0 14.3269 14.3269 0 32 0L261 0C278.673 0 293 14.3269 293 32L293 301Z"/>
</mask>
<path d="M293 301C293 318.673 278.673 333 261 333L32 333C14.3269 333 0 318.673 0 301L0 32C0 14.3269 14.3269 0 32 0L261 0C278.673 0 293 14.3269 293 32L293 301Z" fill="url(#paint0_linear_3985_76061)"/>
<path d="M293 301C293 318.949 278.449 333.5 260.5 333.5L32 333.5C14.0508 333.5 -0.5 318.949 -0.5 301H0.5C0.5 318.397 14.603 332.5 32 332.5L261 332.5C278.673 332.5 293 318.397 293 301ZM-0.5 32C-0.5 14.0508 14.0508 -0.5 32 -0.5L260.5 -0.5C278.449 -0.5 293 14.0508 293 32C293 14.603 278.673 0.5 261 0.5L32 0.5C14.603 0.5 0.5 14.603 0.5 32H-0.5ZM293 0L293 333L293 0ZM32 333.5C14.0508 333.5 -0.5 318.949 -0.5 301L-0.5 32C-0.5 14.0508 14.0508 -0.5 32 -0.5V0.5C14.603 0.5 0.5 14.603 0.5 32L0.5 301C0.5 318.397 14.603 332.5 32 332.5V333.5Z" fill="url(#paint1_linear_3985_76061)" fill-opacity="0.6" mask="url(#path-1-inside-1_3985_76061)"/>
<defs>
<linearGradient id="paint0_linear_3985_76061" x1="293" y1="166.5" x2="0" y2="166.5" gradientUnits="userSpaceOnUse">
<stop stop-color="#191919" stop-opacity="0"/>
<stop offset="1" stop-color="#1E1E1E"/>
</linearGradient>
<linearGradient id="paint1_linear_3985_76061" x1="123.182" y1="166.5" x2="0" y2="166.5" gradientUnits="userSpaceOnUse">
<stop stop-color="#333333" stop-opacity="0"/>
<stop offset="1" stop-color="#999999"/>
</linearGradient>
</defs>
</svg>
