<svg width="16" height="16" viewBox="0 0 16 16" fill="none" xmlns="http://www.w3.org/2000/svg">
<mask id="path-1-inside-1_6727_8635" fill="white">
<path d="M13.279 10.5332C13.1524 10.5332 13.0257 10.4866 12.9257 10.3866L8.57904 6.03989C8.25904 5.71989 7.73904 5.71989 7.41904 6.03989L3.07237 10.3866C2.87904 10.5799 2.55904 10.5799 2.3657 10.3866C2.17237 10.1932 2.17237 9.87322 2.3657 9.67989L6.71237 5.33322C7.41904 4.62656 8.57237 4.62656 9.2857 5.33322L13.6324 9.67989C13.8257 9.87322 13.8257 10.1932 13.6324 10.3866C13.5324 10.4799 13.4057 10.5332 13.279 10.5332Z"/>
</mask>
<path d="M13.279 10.5332C13.1524 10.5332 13.0257 10.4866 12.9257 10.3866L8.57904 6.03989C8.25904 5.71989 7.73904 5.71989 7.41904 6.03989L3.07237 10.3866C2.87904 10.5799 2.55904 10.5799 2.3657 10.3866C2.17237 10.1932 2.17237 9.87322 2.3657 9.67989L6.71237 5.33322C7.41904 4.62656 8.57237 4.62656 9.2857 5.33322L13.6324 9.67989C13.8257 9.87322 13.8257 10.1932 13.6324 10.3866C13.5324 10.4799 13.4057 10.5332 13.279 10.5332Z" fill="#F5F5F5"/>
<path d="M12.9257 10.3866L12.2186 11.0937L12.9257 10.3866ZM8.57904 6.03989L9.28614 5.33278V5.33278L8.57904 6.03989ZM7.41904 6.03989L8.12614 6.747L7.41904 6.03989ZM3.07237 10.3866L2.36526 9.67945H2.36526L3.07237 10.3866ZM2.3657 9.67989L3.07281 10.387L2.3657 9.67989ZM6.71237 5.33322L6.00526 4.62612V4.62612L6.71237 5.33322ZM9.2857 5.33322L9.99282 4.62611L9.98948 4.6228L9.2857 5.33322ZM13.6324 9.67989L12.9253 10.387L13.6324 9.67989ZM13.6324 10.3866L14.3147 11.1176L14.3273 11.1059L14.3395 11.0937L13.6324 10.3866ZM13.279 9.53322C13.4033 9.53322 13.5354 9.58203 13.6328 9.67945L12.2186 11.0937C12.516 11.3911 12.9015 11.5332 13.279 11.5332V9.53322ZM13.6328 9.67945L9.28614 5.33278L7.87193 6.747L12.2186 11.0937L13.6328 9.67945ZM9.28614 5.33278C8.57562 4.62226 7.42245 4.62226 6.71193 5.33278L8.12614 6.747C8.05562 6.81752 7.94245 6.81752 7.87193 6.747L9.28614 5.33278ZM6.71193 5.33278L2.36526 9.67945L3.77948 11.0937L8.12614 6.747L6.71193 5.33278ZM2.36526 9.67945C2.56245 9.48226 2.87562 9.48226 3.07281 9.67945L1.6586 11.0937C2.24245 11.6775 3.19562 11.6775 3.77948 11.0937L2.36526 9.67945ZM3.07281 9.67945C3.27 9.87664 3.27 10.1898 3.07281 10.387L1.6586 8.97278C1.07474 9.55664 1.07474 10.5098 1.6586 11.0937L3.07281 9.67945ZM3.07281 10.387L7.41948 6.04033L6.00526 4.62612L1.6586 8.97278L3.07281 10.387ZM7.41948 6.04033C7.7338 5.72601 8.2565 5.72126 8.58192 6.04364L9.98948 4.6228C8.88824 3.53185 7.10428 3.5271 6.00526 4.62612L7.41948 6.04033ZM8.5786 6.04033L12.9253 10.387L14.3395 8.97278L9.99281 4.62612L8.5786 6.04033ZM12.9253 10.387C12.7281 10.1898 12.7281 9.87664 12.9253 9.67945L14.3395 11.0937C14.9233 10.5098 14.9233 9.55664 14.3395 8.97278L12.9253 10.387ZM12.9501 9.6555C13.0145 9.59537 13.1254 9.53322 13.279 9.53322V11.5332C13.686 11.5332 14.0503 11.3644 14.3147 11.1176L12.9501 9.6555Z" fill="#F5F5F5" mask="url(#path-1-inside-1_6727_8635)"/>
</svg>
