<svg width="33" height="32" viewBox="0 0 33 32" fill="none" xmlns="http://www.w3.org/2000/svg">
<g clip-path="url(#clip0_3985_75974)">
<path d="M16.3999 32C25.2365 32 32.3999 24.8366 32.3999 16C32.3999 7.16344 25.2365 0 16.3999 0C7.56335 0 0.399902 7.16344 0.399902 16C0.399902 24.8366 7.56335 32 16.3999 32Z" fill="#F7931A"/>
<path d="M23.5891 14.02C23.9031 11.924 22.3061 10.797 20.1241 10.045L20.8321 7.205L19.1041 6.775L18.4141 9.54C17.9601 9.426 17.4941 9.32 17.0291 9.214L17.7241 6.431L15.9961 6L15.2881 8.839C14.9121 8.753 14.5421 8.669 14.1841 8.579L14.1861 8.57L11.8021 7.975L11.3421 9.821C11.3421 9.821 12.6251 10.115 12.5981 10.133C13.2981 10.308 13.4241 10.771 13.4031 11.139L12.5971 14.374C12.6451 14.386 12.7071 14.404 12.7771 14.431L12.5941 14.386L11.4641 18.918C11.3781 19.13 11.1611 19.449 10.6711 19.328C10.6891 19.353 9.41513 19.015 9.41513 19.015L8.55713 20.993L10.8071 21.554C11.2251 21.659 11.6351 21.769 12.0381 21.872L11.3231 24.744L13.0501 25.174L13.7581 22.334C14.2301 22.461 14.6881 22.579 15.1361 22.691L14.4301 25.519L16.1581 25.949L16.8731 23.083C19.8211 23.641 22.0371 23.416 22.9701 20.75C23.7221 18.604 22.9331 17.365 21.3821 16.558C22.5121 16.298 23.3621 15.555 23.5891 14.02ZM19.6391 19.558C19.1061 21.705 15.4911 20.544 14.3191 20.253L15.2691 16.448C16.4411 16.741 20.1981 17.32 19.6391 19.558ZM20.1741 13.989C19.6871 15.942 16.6791 14.949 15.7041 14.706L16.5641 11.256C17.5391 11.499 20.6821 11.952 20.1741 13.989Z" fill="white"/>
</g>
<defs>
<clipPath id="clip0_3985_75974">
<rect width="32" height="32" fill="white" transform="translate(0.399902)"/>
</clipPath>
</defs>
</svg>
