<svg width="714" height="207" viewBox="0 0 714 207" fill="none" xmlns="http://www.w3.org/2000/svg">
<mask id="path-1-inside-1_3985_76052" fill="white">
<path d="M0 32C0 14.3269 14.3269 0 32 0H682C699.673 0 714 14.3269 714 32V198C714 215.673 699.673 230 682 230H32C14.3269 230 0 215.673 0 198V32Z"/>
</mask>
<path d="M0 32C0 14.3269 14.3269 0 32 0H682C699.673 0 714 14.3269 714 32V198C714 215.673 699.673 230 682 230H32C14.3269 230 0 215.673 0 198V32Z" fill="url(#paint0_linear_3985_76052)"/>
<path d="M0 32C0 14.0507 14.5507 -0.5 32.5 -0.5H682C699.949 -0.5 714.5 14.0507 714.5 32H713.5C713.5 14.603 699.397 0.5 682 0.5H32C14.3269 0.5 0 14.603 0 32ZM714.5 198C714.5 215.949 699.949 230.5 682 230.5H32.5C14.5507 230.5 0 215.949 0 198C0 215.397 14.3269 229.5 32 229.5H682C699.397 229.5 713.5 215.397 713.5 198H714.5ZM0 230V0V230ZM682 -0.5C699.949 -0.5 714.5 14.0507 714.5 32V198C714.5 215.949 699.949 230.5 682 230.5V229.5C699.397 229.5 713.5 215.397 713.5 198V32C713.5 14.603 699.397 0.5 682 0.5V-0.5Z" fill="url(#paint1_linear_3985_76052)" fill-opacity="0.6" mask="url(#path-1-inside-1_3985_76052)"/>
<defs>
<linearGradient id="paint0_linear_3985_76052" x1="0" y1="115" x2="714" y2="115" gradientUnits="userSpaceOnUse">
<stop stop-color="#191919" stop-opacity="0"/>
<stop offset="1" stop-color="#1E1E1E"/>
</linearGradient>
<linearGradient id="paint1_linear_3985_76052" x1="413.824" y1="115" x2="714" y2="115" gradientUnits="userSpaceOnUse">
<stop stop-color="#333333" stop-opacity="0"/>
<stop offset="1" stop-color="#999999"/>
</linearGradient>
</defs>
</svg>
