<svg width="117" height="117" viewBox="0 0 117 117" fill="none" xmlns="http://www.w3.org/2000/svg">
<g filter="url(#filter0_i_3985_75914)">
<rect x="0.5" y="116.5" width="116" height="116" rx="58" transform="rotate(-90 0.5 116.5)" fill="#F8F8F8" fill-opacity="0.01"/>
<rect x="1.95086" y="115.049" width="113.098" height="113.098" rx="56.5491" transform="rotate(-90 1.95086 115.049)" stroke="#F8F8F8" stroke-opacity="0.1" stroke-width="2.90171"/>
<path opacity="0.2" d="M59 90C76.6731 90 91 75.6731 91 58C91 40.3269 76.6731 26 59 26C41.3269 26 27 40.3269 27 58C27 75.6731 41.3269 90 59 90Z" fill="white"/>
<path fill-rule="evenodd" clip-rule="evenodd" d="M40.3858 42.2097C39.8696 42.1924 39.305 42.1735 38.9124 42.5536C38.4148 42.9552 38.2916 43.632 38.314 44.2368C38.3222 47.4357 38.3235 50.6347 38.3248 53.8335C38.3272 59.9719 38.3297 66.1098 38.3812 72.2464C38.3172 73.3216 39.4948 73.9664 40.45 73.8064C41.3454 73.8293 41.8573 73.0724 42.3089 72.4047C42.3608 72.3279 42.412 72.2523 42.4628 72.1792C45.57 68.2096 48.6916 64.2512 51.8132 60.2928C52.058 60.56 52.3028 60.8304 52.5236 61.12C53.5092 62.4001 54.5068 63.6702 55.5045 64.9404L55.5046 64.9406L55.5053 64.9415L55.506 64.9424C56.1015 65.7005 56.697 66.4587 57.29 67.2192C58.0484 68.3424 59.9332 68.3312 60.7076 67.2288C61.4106 66.3186 62.1188 65.4119 62.827 64.5051C63.7325 63.3458 64.6382 62.1862 65.5332 61.0192C65.7156 60.76 65.9476 60.5456 66.1908 60.3456C67.5258 62.0512 68.8687 63.7511 70.2116 65.4509C72.0104 67.7278 73.8092 70.0048 75.5892 72.296C75.6613 72.3928 75.7316 72.4936 75.8025 72.5952L75.8025 72.5953L75.8026 72.5954C76.1251 73.0577 76.4584 73.5356 77.0132 73.7232C77.7956 73.9152 78.7556 73.8528 79.306 73.1888C79.6478 72.7752 79.6369 72.2399 79.6263 71.723V71.7229V71.7229C79.6233 71.572 79.6202 71.4226 79.626 71.2784C79.65 69.8928 79.6708 68.5072 79.6612 67.12C79.6612 63.5043 79.6669 59.8891 79.6725 56.2738V56.2738V56.2737C79.6789 52.2066 79.6853 48.1395 79.6836 44.072C79.6852 43.5232 79.5492 42.896 79.0612 42.5728C78.4852 42.096 77.6836 42.1664 76.9924 42.264C76.4734 42.4534 76.1391 42.902 75.817 43.3344L75.8168 43.3346L75.8167 43.3347C75.7526 43.4208 75.6889 43.5062 75.6244 43.5888C74.4333 45.1023 73.2475 46.6201 72.0618 48.1378C70.5113 50.1224 68.961 52.1068 67.3988 54.0816C67.2791 54.2291 67.1635 54.3807 67.0478 54.5324L67.0478 54.5325C66.7446 54.9301 66.4411 55.3282 66.0612 55.656C65.4113 54.8356 64.7717 54.0069 64.1321 53.1782C63.3671 52.1871 62.6021 51.196 61.8196 50.2192C61.6786 50.0415 61.5429 49.8587 61.4073 49.6758L61.4072 49.6757L61.4072 49.6756C61.0443 49.1863 60.6809 48.6964 60.2116 48.304C59.6772 47.8624 58.9188 47.936 58.2804 48.0352C57.5892 48.2954 57.1577 48.8922 56.7332 49.4795C56.573 49.7011 56.4138 49.9213 56.242 50.1216C55.6238 50.8783 55.0309 51.6557 54.4381 52.4331L54.438 52.4331C53.5932 53.5409 52.7485 54.6485 51.8308 55.696C51.0726 54.7307 50.3133 53.7662 49.5541 52.8018C46.9571 49.5028 44.3602 46.204 41.8036 42.8736C41.5012 42.5232 41.0964 42.1952 40.6068 42.216C40.5346 42.2147 40.4607 42.2123 40.3858 42.2097ZM42.1415 67.1269C42.1463 61.0981 42.1495 55.0693 42.1447 49.0405C42.1473 48.9892 42.1479 48.9363 42.1484 48.8829V48.8829C42.1508 48.6466 42.1533 48.3997 42.3399 48.2261C42.7969 48.6789 43.1849 49.19 43.5729 49.7009L43.5729 49.7009L43.5729 49.7009C43.7634 49.9519 43.954 50.2029 44.1527 50.4469C45.2303 51.8074 46.3 53.1748 47.3695 54.542L47.3696 54.5421L47.3697 54.5422C48.2183 55.627 49.0668 56.7116 49.9191 57.7925C50.101 58.066 49.8906 58.3076 49.6976 58.5293C49.6309 58.6059 49.5663 58.6802 49.5207 58.7525C48.815 59.6573 48.1082 60.5611 47.4015 61.4649L47.4013 61.4651C46.2109 62.9875 45.0205 64.5097 43.8359 66.0357C43.739 66.1591 43.6428 66.2831 43.5466 66.4071L43.5465 66.4072L43.5463 66.4075C43.1548 66.9122 42.763 67.4173 42.3239 67.8821C42.1991 67.6485 42.1223 67.3925 42.1415 67.1269ZM68.8494 56.8076L68.849 56.8081L68.0804 57.7891C67.8856 58.0309 68.0777 58.2716 68.2409 58.4761C68.2721 58.5151 68.3022 58.5529 68.3284 58.5891C68.8681 59.2218 69.3717 59.8831 69.8753 60.5443C70.2466 61.0319 70.6179 61.5195 71.0036 61.9955C71.6598 62.8034 72.2953 63.6283 72.9307 64.4531L72.9309 64.4534C73.823 65.6114 74.7151 66.7693 75.6644 67.8803C75.8036 67.7059 75.8692 67.5075 75.8612 67.2851C75.8504 62.1403 75.8521 56.9954 75.8539 51.8496V51.8445L75.8548 49.0387C75.8612 48.7523 75.8452 48.4611 75.6676 48.2211C75.108 48.7861 74.6292 49.419 74.1504 50.052C73.9133 50.3655 73.6762 50.679 73.4292 50.9843C71.8954 52.9193 70.3721 54.8638 68.8494 56.8076ZM57.5349 52.9995C57.833 52.607 58.1313 52.2141 58.5044 51.8922C59.0516 51.5834 59.6436 51.937 59.9556 52.4058C60.7363 53.4239 61.5338 54.4298 62.3313 55.4358C62.9263 56.1863 63.5212 56.9368 64.1092 57.6922C64.3956 57.9732 64.1385 58.2734 63.9276 58.5197C63.8875 58.5665 63.8491 58.6114 63.8164 58.6538C62.522 60.2954 61.2308 61.9418 59.9476 63.5914C59.916 63.6274 59.8842 63.6652 59.8519 63.7036C59.6292 63.9686 59.3821 64.2625 59.002 64.2122C58.5252 64.273 58.2116 63.873 57.954 63.5402C57.2947 62.674 56.6212 61.8189 55.9476 60.9637C55.173 59.9802 54.3983 58.9967 53.6452 57.9962C54.2712 57.1252 54.9421 56.2872 55.6132 55.4489C56.117 54.8196 56.6209 54.1901 57.106 53.5466C57.2541 53.3693 57.3944 53.1844 57.5349 52.9995Z" fill="white"/>
<path opacity="0.2" fill-rule="evenodd" clip-rule="evenodd" d="M60.5008 26H57.3472C56.9117 26.0558 56.4754 26.1042 56.0391 26.1526C55.4253 26.2207 54.8116 26.2888 54.2 26.3776C50.2048 26.9552 46.3648 28.3792 42.8576 30.3584C39.9312 32.0592 37.3456 34.2832 35.0432 36.7536C32.5792 39.6224 30.5312 42.8656 29.1712 46.4032C27.8656 49.7168 27.1792 53.256 27 56.8096V59.6608C27.2864 63.9408 28.3104 68.1904 30.224 72.0416C32.8736 77.528 37.1616 82.1952 42.3552 85.3696C46.952 88.1712 52.2656 89.7872 57.6464 90H60.3552C66.1984 89.7664 71.968 87.8864 76.8176 84.616C83.824 79.9376 88.8832 72.4016 90.4224 64.1056C90.4979 63.7355 90.5529 63.3614 90.6079 62.9874C90.703 62.3395 90.7981 61.6921 91 61.0672V56.1856C90.9681 55.9153 90.9378 55.6447 90.9076 55.374C90.8346 54.722 90.7617 54.0698 90.6656 53.4208C89.9152 48.0656 87.7472 42.912 84.4528 38.6256C80.1312 32.8176 73.6944 28.6752 66.6768 26.952C64.656 26.4272 62.576 26.1984 60.5008 26ZM38.3138 44.2367C38.2914 43.6319 38.4146 42.9551 38.9122 42.5535C39.3048 42.1735 39.8694 42.1924 40.3856 42.2097C40.4605 42.2122 40.5344 42.2147 40.6066 42.2159C41.0962 42.1951 41.501 42.5231 41.8034 42.8735C44.36 46.2039 46.9569 49.5027 49.5539 52.8017C50.3131 53.7662 51.0724 54.7306 51.8306 55.6959C52.7483 54.6485 53.593 53.5409 54.4378 52.4331C55.0307 51.6557 55.6236 50.8783 56.2418 50.1215C56.4136 49.9212 56.5728 49.701 56.733 49.4795C57.1576 48.8921 57.589 48.2953 58.2802 48.0351C58.9186 47.9359 59.677 47.8623 60.2114 48.3039C60.6807 48.6964 61.0441 49.1863 61.407 49.6756C61.5427 49.8586 61.6783 50.0414 61.8194 50.2191C62.602 51.196 63.3669 52.1871 64.1319 53.1782C64.7715 54.0069 65.4111 54.8355 66.061 55.6559C66.4409 55.3282 66.7444 54.93 67.0476 54.5324C67.1633 54.3807 67.2789 54.2291 67.3986 54.0815C68.9608 52.1067 70.5112 50.1222 72.0618 48.1375C73.2474 46.6199 74.4331 45.1022 75.6242 43.5887C75.6888 43.506 75.7526 43.4205 75.8168 43.3343C76.1389 42.902 76.4733 42.4534 76.9922 42.2639C77.6834 42.1663 78.485 42.0959 79.061 42.5727C79.549 42.8959 79.685 43.5231 79.6834 44.0719C79.6851 48.1395 79.6787 52.2066 79.6724 56.2738C79.6667 59.889 79.661 63.5043 79.661 67.1199C79.6706 68.5071 79.6498 69.8927 79.6258 71.2783C79.62 71.4226 79.6231 71.572 79.6262 71.723C79.6367 72.2398 79.6476 72.7751 79.3058 73.1887C78.7554 73.8527 77.7954 73.9151 77.013 73.7231C76.4582 73.5356 76.1249 73.0577 75.8024 72.5954C75.7315 72.4937 75.6611 72.3928 75.589 72.2959C73.809 70.0047 72.0102 67.7277 70.2113 65.4508C68.8685 63.751 67.5256 62.0512 66.1906 60.3455C65.9474 60.5455 65.7154 60.7599 65.533 61.0191C64.638 62.1862 63.7323 63.3457 62.8268 64.5051C62.1185 65.4119 61.4104 66.3186 60.7074 67.2287C59.933 68.3311 58.0482 68.3423 57.2898 67.2191C56.6964 66.4581 56.1004 65.6994 55.5046 64.9407C54.5068 63.6704 53.5091 62.4002 52.5234 61.1199C52.3026 60.8303 52.0578 60.5599 51.813 60.2927C48.6914 64.2511 45.5698 68.2095 42.4626 72.1791C42.4118 72.2522 42.3606 72.3279 42.3087 72.4047C41.8571 73.0724 41.3452 73.8293 40.4498 73.8063C39.4946 73.9663 38.317 73.3215 38.381 72.2463C38.3295 66.1098 38.327 59.9719 38.3246 53.8335C38.3233 50.6347 38.322 47.4357 38.3138 44.2367Z" fill="white"/>
<path opacity="0.2" fill-rule="evenodd" clip-rule="evenodd" d="M42.1443 49.0407C42.1587 48.7623 42.1107 48.4391 42.3395 48.2263C43.0211 48.9015 43.5491 49.7063 44.1523 50.4471C46.0851 52.8871 47.9923 55.3495 49.9187 57.7927C50.1635 58.1607 49.6979 58.4711 49.5203 58.7527C47.6259 61.1815 45.7235 63.6039 43.8355 66.0359C43.3443 66.6615 42.8707 67.3031 42.3235 67.8823C42.1987 67.6487 42.1219 67.3927 42.1411 67.1271C42.1459 61.0983 42.1491 55.0695 42.1443 49.0407Z" fill="white"/>
<path opacity="0.2" fill-rule="evenodd" clip-rule="evenodd" d="M73.4289 50.9844C74.1745 50.0628 74.8305 49.066 75.6673 48.2212C75.8449 48.4612 75.8609 48.7524 75.8545 49.0388C75.8529 55.122 75.8481 61.2036 75.8609 67.2852C75.8689 67.5076 75.8033 67.706 75.6641 67.8804C74.0385 65.978 72.5809 63.938 71.0033 61.9956C70.0945 60.874 69.2657 59.6884 68.3281 58.5892C68.1649 58.3636 67.8481 58.0772 68.0801 57.7892C69.8593 55.5188 71.6369 53.2452 73.4289 50.9844Z" fill="white"/>
<path opacity="0.2" fill-rule="evenodd" clip-rule="evenodd" d="M58.5042 51.8911C59.0514 51.5823 59.6434 51.9359 59.9554 52.4047C61.3186 54.1823 62.733 55.9231 64.109 57.6911C64.4498 58.0255 64.021 58.3871 63.8162 58.6527C62.5218 60.2943 61.2306 61.9407 59.9474 63.5903C59.6978 63.8751 59.437 64.2687 59.0018 64.2111C58.525 64.2719 58.2114 63.8719 57.9538 63.5391C56.5362 61.6767 55.053 59.8655 53.645 57.9951C54.741 56.4703 55.9746 55.0463 57.1058 53.5455C57.5682 52.9919 57.9554 52.3647 58.5042 51.8911Z" fill="white"/>
</g>
<defs>
<filter id="filter0_i_3985_75914" x="-192.947" y="-192.947" width="502.895" height="502.895" filterUnits="userSpaceOnUse" color-interpolation-filters="sRGB">
<feFlood flood-opacity="0" result="BackgroundImageFix"/>
<feBlend mode="normal" in="SourceGraphic" in2="BackgroundImageFix" result="shape"/>
<feColorMatrix in="SourceAlpha" type="matrix" values="0 0 0 0 0 0 0 0 0 0 0 0 0 0 0 0 0 0 127 0" result="hardAlpha"/>
<feOffset dx="3.86895" dy="7.7379"/>
<feGaussianBlur stdDeviation="15.4758"/>
<feComposite in2="hardAlpha" operator="arithmetic" k2="-1" k3="1"/>
<feColorMatrix type="matrix" values="0 0 0 0 0.972549 0 0 0 0 0.972549 0 0 0 0 0.972549 0 0 0 0.06 0"/>
<feBlend mode="normal" in2="shape" result="effect1_innerShadow_3985_75914"/>
</filter>
</defs>
</svg>
