<svg width="109" height="109" viewBox="0 0 109 109" fill="none" xmlns="http://www.w3.org/2000/svg">
<g filter="url(#filter0_i_3985_75916)">
<rect x="0.5" y="108.5" width="108" height="108" rx="54" transform="rotate(-90 0.5 108.5)" fill="#F8F8F8" fill-opacity="0.01"/>
<rect x="1.86005" y="107.14" width="105.28" height="105.28" rx="52.6399" transform="rotate(-90 1.86005 107.14)" stroke="#F8F8F8" stroke-opacity="0.1" stroke-width="2.7201"/>
<path d="M55 86C72.6731 86 87 71.6731 87 54C87 36.3269 72.6731 22 55 22C37.3269 22 23 36.3269 23 54C23 71.6731 37.3269 86 55 86Z" fill="white" fill-opacity="0.36"/>
<mask id="mask0_3985_75916" style="mask-type:luminance" maskUnits="userSpaceOnUse" x="23" y="22" width="64" height="64">
<path d="M55 86C72.6731 86 87 71.6731 87 54C87 36.3269 72.6731 22 55 22C37.3269 22 23 36.3269 23 54C23 71.6731 37.3269 86 55 86Z" fill="white"/>
</mask>
<g mask="url(#mask0_3985_75916)">
<path fill-rule="evenodd" clip-rule="evenodd" d="M41.2994 42.3769C45.2388 40.2761 50.213 39.2272 56.2218 39.2302C62.2286 39.2302 67.2028 40.2791 71.1443 42.3769C71.837 42.7459 72.2445 43.4486 72.1955 44.1898L71.4027 56.13C71.0647 61.1981 68.1609 65.8162 63.5778 68.5744L57.3652 72.3159C56.6694 72.7349 55.7739 72.7349 55.078 72.3159L48.8657 68.5746C44.2825 65.8163 41.3788 61.1981 41.041 56.13L40.2481 44.1898C40.1991 43.4486 40.6066 42.7459 41.2994 42.3769Z" stroke="white" stroke-width="0.25457"/>
<path d="M41.4702 42.3838L55.5943 66.1111C55.7319 66.3421 55.9937 66.4851 56.2776 66.4844C56.5615 66.4837 56.8225 66.3395 56.9588 66.1078L70.9737 42.2671" stroke="white" stroke-width="0.25457"/>
<path d="M42.5605 61.906L55.9554 39.6692C56.0386 39.5311 56.1959 39.446 56.3661 39.447C56.5362 39.4481 56.6924 39.5351 56.7736 39.6741L69.8064 62.004" stroke="white" stroke-width="0.25457"/>
<path d="M64.2314 54.8858C65.1549 54.8858 65.9036 54.1364 65.9036 53.2119C65.9036 52.2875 65.1549 51.5381 64.2314 51.5381C63.3078 51.5381 62.5591 52.2875 62.5591 53.2119C62.5591 54.1364 63.3078 54.8858 64.2314 54.8858Z" fill="white"/>
<path d="M56.2314 68.4236C57.1549 68.4236 57.9036 67.6742 57.9036 66.7498C57.9036 65.8253 57.1549 65.0759 56.2314 65.0759C55.3078 65.0759 54.5591 65.8253 54.5591 66.7498C54.5591 67.6742 55.3078 68.4236 56.2314 68.4236Z" fill="white"/>
<path d="M47.6156 54.8861C48.5392 54.8861 49.2879 54.1367 49.2879 53.2123C49.2879 52.2879 48.5392 51.5385 47.6156 51.5385C46.6921 51.5385 45.9434 52.2879 45.9434 53.2123C45.9434 54.1367 46.6921 54.8861 47.6156 54.8861Z" fill="white"/>
<path d="M56.2315 67.2291V71.5368" stroke="white" stroke-width="0.25457" stroke-linecap="square"/>
<path d="M42.5171 61.8453C43.6682 62.1001 49.8532 65.8433 56.8101 67.4305L69.9457 61.8453" stroke="white" stroke-width="0.25457"/>
</g>
</g>
<defs>
<filter id="filter0_i_3985_75916" x="-180.84" y="-180.84" width="470.68" height="470.68" filterUnits="userSpaceOnUse" color-interpolation-filters="sRGB">
<feFlood flood-opacity="0" result="BackgroundImageFix"/>
<feBlend mode="normal" in="SourceGraphic" in2="BackgroundImageFix" result="shape"/>
<feColorMatrix in="SourceAlpha" type="matrix" values="0 0 0 0 0 0 0 0 0 0 0 0 0 0 0 0 0 0 127 0" result="hardAlpha"/>
<feOffset dx="3.6268" dy="7.25359"/>
<feGaussianBlur stdDeviation="14.5072"/>
<feComposite in2="hardAlpha" operator="arithmetic" k2="-1" k3="1"/>
<feColorMatrix type="matrix" values="0 0 0 0 0.972549 0 0 0 0 0.972549 0 0 0 0 0.972549 0 0 0 0.06 0"/>
<feBlend mode="normal" in2="shape" result="effect1_innerShadow_3985_75916"/>
</filter>
</defs>
</svg>
