<svg width="122" height="121" viewBox="0 0 122 121" fill="none" xmlns="http://www.w3.org/2000/svg">
<g filter="url(#filter0_i_3985_75901)">
<rect x="0.5" y="121" width="121" height="121" rx="60.5" transform="rotate(-90 0.5 121)" fill="#F8F8F8" fill-opacity="0.01"/>
<rect x="2.01339" y="119.487" width="117.973" height="117.973" rx="58.9866" transform="rotate(-90 2.01339 119.487)" stroke="#F8F8F8" stroke-opacity="0.1" stroke-width="3.02679"/>
<path opacity="0.2" d="M61 92C78.6731 92 93 77.6731 93 60C93 42.3269 78.6731 28 61 28C43.3269 28 29 42.3269 29 60C29 77.6731 43.3269 92 61 92Z" fill="white"/>
<path fill-rule="evenodd" clip-rule="evenodd" d="M72.1181 57.2699C71.1944 56.5094 69.9917 56.1288 68.5103 56.1283C70.0505 54.74 70.4309 52.9406 69.6521 50.7297C69.3757 49.9265 68.9809 49.2691 68.4668 48.7566C67.9524 48.2441 67.3404 47.8815 66.6288 47.6692C65.9175 47.4563 65.1738 47.3447 64.3991 47.3331C63.6241 47.3215 62.7547 47.3896 61.7914 47.5374L60.619 42.8351L57.8661 43.5215L59.0059 48.0931C58.5292 48.212 57.8053 48.4056 56.8343 48.6742L55.6852 44.0652L52.9319 44.7517L54.1043 49.454C53.714 49.5646 53.1376 49.715 52.3748 49.9052L48.5801 50.8313L49.3431 53.8916L51.3274 53.3968C52.2333 53.171 52.8691 53.4618 53.2349 54.269L54.5702 59.6244C54.6895 59.5947 54.7864 59.5773 54.861 59.5719L54.5749 59.6432L56.4451 67.1442C56.508 67.8022 56.2415 68.2058 55.6455 68.3544L53.6613 68.8491L53.9585 72.4021L57.5341 71.5106C57.7606 71.4542 58.0889 71.3756 58.5195 71.2742C58.9501 71.1735 59.2726 71.0965 59.4871 71.043L60.6735 75.8011L63.4272 75.1145L62.2548 70.4123C62.7585 70.3003 63.487 70.1251 64.4405 69.8874L65.6082 74.5708L68.3611 73.8844L67.1748 69.1262C68.1399 68.8328 68.9838 68.5239 69.7061 68.1979C70.4287 67.8719 71.0995 67.4771 71.7177 67.0122C72.3359 66.5478 72.8231 66.0396 73.1793 65.4883C73.5358 64.9374 73.7818 64.2878 73.9187 63.54C74.0546 62.7925 74.0547 61.9666 73.9176 61.0625C73.6422 59.295 73.042 58.0307 72.1181 57.2699ZM57.7252 52.0206L57.7254 52.0206L59.1536 57.749C59.2134 57.7341 59.4195 57.6862 59.7728 57.6046C60.1261 57.5231 60.4031 57.454 60.6043 57.3973C60.8052 57.3407 61.1001 57.2537 61.4889 57.137C61.8777 57.0204 62.1968 56.9044 62.4466 56.7892C62.6963 56.6742 62.9861 56.5292 63.3158 56.3545C63.6456 56.1799 63.9062 55.9926 64.0968 55.7933C64.2876 55.5938 64.4666 55.3707 64.6329 55.1244C64.7991 54.8781 64.9007 54.5984 64.9363 54.2856C64.9721 53.9727 64.9465 53.642 64.8596 53.2937C64.7573 52.8832 64.5921 52.538 64.3638 52.258C64.136 51.9778 63.8892 51.7618 63.6233 51.6101C63.3578 51.4583 63.0285 51.3553 62.635 51.3016C62.2421 51.2476 61.8885 51.2267 61.5751 51.2389C61.2618 51.2511 60.8829 51.2926 60.4386 51.3637C59.9941 51.4349 59.6446 51.5055 59.3898 51.5756C59.1351 51.6457 58.815 51.7321 58.429 51.8351C58.0435 51.9379 57.809 51.9997 57.7254 52.0206L57.7254 52.0205L57.7252 52.0205L57.7252 52.0206ZM68.1593 63.7085C68.2852 63.4523 68.3689 63.167 68.411 62.8524C68.453 62.5378 68.4306 62.207 68.3437 61.8583C68.2321 61.4104 68.0434 61.0345 67.7775 60.731C67.5119 60.4271 67.2203 60.1964 66.9021 60.0374C66.584 59.8789 66.1939 59.7747 65.7321 59.7248C65.2699 59.6747 64.8512 59.657 64.4751 59.6714C64.0987 59.686 63.6438 59.7402 63.1104 59.8338C62.5764 59.927 62.1605 60.0112 61.8626 60.0855C61.5646 60.1598 61.1819 60.2614 60.714 60.3914C60.2463 60.5214 59.9647 60.5981 59.8695 60.6218L61.4421 66.9291C61.5375 66.9053 61.7586 66.8535 62.1059 66.7731C62.453 66.693 62.74 66.6251 62.9665 66.5686C63.1928 66.5122 63.5065 66.4239 63.907 66.3046C64.3077 66.1847 64.65 66.073 64.9341 65.9691C65.2186 65.8649 65.5449 65.7277 65.9142 65.5563C66.2825 65.3849 66.5917 65.2158 66.8411 65.0475C67.0902 64.8797 67.341 64.6787 67.5924 64.444C67.844 64.2097 68.033 63.9642 68.1593 63.7085Z" fill="#FFC107"/>
<path fill-rule="evenodd" clip-rule="evenodd" d="M61.0003 87.0779C75.9544 87.0779 88.0772 74.9552 88.0772 60.001C88.0772 45.0468 75.9544 32.9241 61.0003 32.9241C46.0461 32.9241 33.9233 45.0468 33.9233 60.001C33.9233 74.9552 46.0461 87.0779 61.0003 87.0779Z" stroke="white" stroke-width="0.70325"/>
</g>
<defs>
<filter id="filter0_i_3985_75901" x="-201.286" y="-201.786" width="524.571" height="524.571" filterUnits="userSpaceOnUse" color-interpolation-filters="sRGB">
<feFlood flood-opacity="0" result="BackgroundImageFix"/>
<feBlend mode="normal" in="SourceGraphic" in2="BackgroundImageFix" result="shape"/>
<feColorMatrix in="SourceAlpha" type="matrix" values="0 0 0 0 0 0 0 0 0 0 0 0 0 0 0 0 0 0 127 0" result="hardAlpha"/>
<feOffset dx="4.03571" dy="8.07143"/>
<feGaussianBlur stdDeviation="16.1429"/>
<feComposite in2="hardAlpha" operator="arithmetic" k2="-1" k3="1"/>
<feColorMatrix type="matrix" values="0 0 0 0 0.972549 0 0 0 0 0.972549 0 0 0 0 0.972549 0 0 0 0.06 0"/>
<feBlend mode="normal" in2="shape" result="effect1_innerShadow_3985_75901"/>
</filter>
</defs>
</svg>
