<svg width="122" height="121" viewBox="0 0 122 121" fill="none" xmlns="http://www.w3.org/2000/svg">
<g filter="url(#filter0_i_3985_75912)">
<rect x="0.5" y="121" width="121" height="121" rx="60.5" transform="rotate(-90 0.5 121)" fill="#F8F8F8" fill-opacity="0.01"/>
<rect x="2.01339" y="119.487" width="117.973" height="117.973" rx="58.9866" transform="rotate(-90 2.01339 119.487)" stroke="#F8F8F8" stroke-opacity="0.1" stroke-width="3.02679"/>
<path opacity="0.1" d="M61 92C78.6731 92 93 77.6731 93 60C93 42.3269 78.6731 28 61 28C43.3269 28 29 42.3269 29 60C29 77.6731 43.3269 92 61 92Z" fill="white"/>
<mask id="mask0_3985_75912" style="mask-type:luminance" maskUnits="userSpaceOnUse" x="29" y="28" width="64" height="64">
<path d="M61 92C78.6731 92 93 77.6731 93 60C93 42.3269 78.6731 28 61 28C43.3269 28 29 42.3269 29 60C29 77.6731 43.3269 92 61 92Z" fill="white"/>
</mask>
<g mask="url(#mask0_3985_75912)">
<path fill-rule="evenodd" clip-rule="evenodd" d="M53.6153 58.3413L62.2661 52.718L70.8461 58.3762L62.2284 42.7695L53.6153 58.3413ZM53.9452 59.9649L62.2754 54.4755L70.4971 59.9242L62.2801 65.4194L53.9452 59.9649ZM53.6152 61.5375C56.6512 63.5284 59.8193 65.6124 62.266 67.2248L70.846 61.5375C67.7393 67.2365 65.1511 71.9808 62.266 77.2315L60.4973 74.0255L60.4967 74.0244C58.1199 69.7163 55.6688 65.2736 53.6152 61.5375Z" fill="url(#paint0_linear_3985_75912)"/>
<path fill-rule="evenodd" clip-rule="evenodd" d="M62.2305 42.7694L62.2628 52.7178L70.8459 58.3761L62.2305 42.7694ZM62.2714 54.4754L70.5474 59.924L62.2754 65.4193L62.2714 54.4754ZM62.2635 67.2247L70.8466 61.5374C68.1844 67.2364 62.2635 77.2314 62.2635 77.2314V67.2247Z" fill="url(#paint1_linear_3985_75912)"/>
</g>
</g>
<defs>
<filter id="filter0_i_3985_75912" x="-201.286" y="-201.786" width="524.571" height="524.571" filterUnits="userSpaceOnUse" color-interpolation-filters="sRGB">
<feFlood flood-opacity="0" result="BackgroundImageFix"/>
<feBlend mode="normal" in="SourceGraphic" in2="BackgroundImageFix" result="shape"/>
<feColorMatrix in="SourceAlpha" type="matrix" values="0 0 0 0 0 0 0 0 0 0 0 0 0 0 0 0 0 0 127 0" result="hardAlpha"/>
<feOffset dx="4.03571" dy="8.07143"/>
<feGaussianBlur stdDeviation="16.1429"/>
<feComposite in2="hardAlpha" operator="arithmetic" k2="-1" k3="1"/>
<feColorMatrix type="matrix" values="0 0 0 0 0.972549 0 0 0 0 0.972549 0 0 0 0 0.972549 0 0 0 0.06 0"/>
<feBlend mode="normal" in2="shape" result="effect1_innerShadow_3985_75912"/>
</filter>
<linearGradient id="paint0_linear_3985_75912" x1="62.2307" y1="42.7695" x2="62.2307" y2="77.2315" gradientUnits="userSpaceOnUse">
<stop stop-color="white"/>
<stop offset="1" stop-color="#999999"/>
</linearGradient>
<linearGradient id="paint1_linear_3985_75912" x1="66.5385" y1="42.7694" x2="66.5385" y2="77.2314" gradientUnits="userSpaceOnUse">
<stop stop-color="white"/>
<stop offset="1" stop-color="#999999"/>
</linearGradient>
</defs>
</svg>
