<svg width="24" height="24" viewBox="0 0 24 24" fill="none" xmlns="http://www.w3.org/2000/svg">
<g clip-path="url(#clip0_4079_23308)">
<path d="M22 8V8.87C22 9.57 21.63 10.22 21.03 10.58L13.54 15.07C12.59 15.64 11.41 15.64 10.46 15.07L2.97 10.58C2.37 10.22 2 9.57 2 8.87V8C2 5.8 3.8 4 6 4H18C20.2 4 22 5.8 22 8Z" fill="#FFC107"/>
<path d="M20.48 12.6399C21.15 12.2399 22 12.7199 22 13.4999V16.9999C22 18.6599 20.66 19.9999 19 19.9999H5C3.34 19.9999 2 18.6599 2 16.9999V13.4999C2 12.7199 2.84999 12.2399 3.51999 12.6399L9.69 16.3599C10.4 16.7799 11.2 16.9999 12 16.9999C12.8 16.9999 13.6 16.7799 14.31 16.3599L20.48 12.6399Z" fill="#FFC107"/>
</g>
<defs>
<clipPath id="clip0_4079_23308">
<rect width="24" height="24" fill="white"/>
</clipPath>
</defs>
</svg>
