<svg width="16" height="17" viewBox="0 0 16 17" fill="none" xmlns="http://www.w3.org/2000/svg">
<path d="M6.00098 15.1663C5.84064 15.1663 5.68525 15.1618 5.53516 15.1555C5.68666 15.1614 5.84211 15.1663 6.00098 15.1663ZM14.667 10.5002C14.667 10.6603 14.6625 10.8152 14.6562 10.9651C14.6621 10.8138 14.667 10.6589 14.667 10.5002ZM1.33398 6.50024C1.33398 6.33435 1.33802 6.17373 1.34473 6.0188C1.33844 6.17525 1.33398 6.33593 1.33398 6.50024ZM10.001 1.83325C10.1666 1.83326 10.3267 1.83731 10.4814 1.84399C10.3252 1.83772 10.1651 1.83326 10.001 1.83325Z" fill="#F5F5F5" stroke="#FFC107"/>
<mask id="path-2-inside-1_6727_12003" fill="white">
<path d="M9.88722 9.89331H7.06055C6.78721 9.89331 6.56055 9.66664 6.56055 9.39331C6.56055 9.11998 6.78721 8.89331 7.06055 8.89331H9.38722V6.56665C9.38722 6.29332 9.61388 6.06665 9.88722 6.06665C10.1606 6.06665 10.3872 6.29332 10.3872 6.56665V9.39331C10.3872 9.67331 10.1606 9.89331 9.88722 9.89331Z"/>
</mask>
<path d="M9.88722 9.89331H7.06055C6.78721 9.89331 6.56055 9.66664 6.56055 9.39331C6.56055 9.11998 6.78721 8.89331 7.06055 8.89331H9.38722V6.56665C9.38722 6.29332 9.61388 6.06665 9.88722 6.06665C10.1606 6.06665 10.3872 6.29332 10.3872 6.56665V9.39331C10.3872 9.67331 10.1606 9.89331 9.88722 9.89331Z" fill="#F5F5F5"/>
<path d="M9.38722 8.89331V9.89331H10.3872V8.89331H9.38722ZM9.88722 8.89331H7.06055V10.8933H9.88722V8.89331ZM7.06055 8.89331C7.3395 8.89331 7.56055 9.11436 7.56055 9.39331H5.56055C5.56055 10.2189 6.23493 10.8933 7.06055 10.8933V8.89331ZM7.56055 9.39331C7.56055 9.67226 7.3395 9.89331 7.06055 9.89331V7.89331C6.23493 7.89331 5.56055 8.56769 5.56055 9.39331H7.56055ZM7.06055 9.89331H9.38722V7.89331H7.06055V9.89331ZM10.3872 8.89331V6.56665H8.38722V8.89331H10.3872ZM10.3872 6.56665C10.3872 6.8456 10.1662 7.06665 9.88722 7.06665V5.06665C9.0616 5.06665 8.38722 5.74103 8.38722 6.56665H10.3872ZM9.88722 7.06665C9.60827 7.06665 9.38722 6.8456 9.38722 6.56665H11.3872C11.3872 5.74103 10.7128 5.06665 9.88722 5.06665V7.06665ZM9.38722 6.56665V9.39331H11.3872V6.56665H9.38722ZM9.38722 9.39331C9.38722 9.11236 9.61697 8.89331 9.88722 8.89331V10.8933C10.7041 10.8933 11.3872 10.2343 11.3872 9.39331H9.38722Z" fill="#FFC107" mask="url(#path-2-inside-1_6727_12003)"/>
<mask id="path-4-inside-2_6727_12003" fill="white">
<path d="M9.8869 9.89325C9.76024 9.89325 9.63357 9.84658 9.53357 9.74658L5.76023 5.97326C5.5669 5.77992 5.5669 5.45992 5.76023 5.26658C5.95357 5.07325 6.27357 5.07325 6.4669 5.26658L10.2402 9.03992C10.4336 9.23325 10.4336 9.55325 10.2402 9.74658C10.1402 9.84658 10.0136 9.89325 9.8869 9.89325Z"/>
</mask>
<path d="M9.8869 9.89325C9.76024 9.89325 9.63357 9.84658 9.53357 9.74658L5.76023 5.97326C5.5669 5.77992 5.5669 5.45992 5.76023 5.26658C5.95357 5.07325 6.27357 5.07325 6.4669 5.26658L10.2402 9.03992C10.4336 9.23325 10.4336 9.55325 10.2402 9.74658C10.1402 9.84658 10.0136 9.89325 9.8869 9.89325Z" fill="#F5F5F5"/>
<path d="M9.53357 9.74658L10.2407 9.03948L10.2407 9.03947L9.53357 9.74658ZM5.76023 5.97326L5.05313 6.68036L5.05313 6.68036L5.76023 5.97326ZM6.4669 5.26658L5.75979 5.97369L6.4669 5.26658ZM10.2402 9.03992L10.9473 8.33281L10.2402 9.03992ZM9.8869 8.89325C10.0111 8.89325 10.1433 8.94206 10.2407 9.03948L8.82646 10.4537C9.12388 10.7511 9.50932 10.8932 9.8869 10.8932V8.89325ZM10.2407 9.03947L6.46734 5.26615L5.05313 6.68036L8.82646 10.4537L10.2407 9.03947ZM6.46734 5.26615C6.66453 5.46334 6.66453 5.7765 6.46734 5.97369L5.05313 4.55948C4.46927 5.14333 4.46927 6.09651 5.05313 6.68036L6.46734 5.26615ZM6.46734 5.97369C6.27015 6.17088 5.95698 6.17088 5.75979 5.97369L7.17401 4.55948C6.59015 3.97562 5.63699 3.97562 5.05313 4.55948L6.46734 5.97369ZM5.75979 5.97369L9.53313 9.74702L10.9473 8.33281L7.17401 4.55948L5.75979 5.97369ZM9.53313 9.74702C9.33594 9.54983 9.33594 9.23667 9.53313 9.03948L10.9473 10.4537C11.5312 9.86983 11.5312 8.91667 10.9473 8.33281L9.53313 9.74702ZM9.53313 9.03948C9.63054 8.94206 9.76266 8.89325 9.8869 8.89325V10.8932C10.2645 10.8932 10.6499 10.7511 10.9473 10.4537L9.53313 9.03948Z" fill="#FFC107" mask="url(#path-4-inside-2_6727_12003)"/>
<path d="M6.81934 12.095C7.21259 12.1316 7.60711 12.1525 8.00195 12.1526L8.00098 12.1536C7.60692 12.1536 7.21257 12.1318 6.81934 12.095ZM11.3867 11.6936C10.2932 11.9975 9.1623 12.1498 8.0332 12.1526C9.16393 12.15 10.2937 11.9959 11.3867 11.6936Z" fill="#FFC107" stroke="#FFC107"/>
</svg>
