<svg width="16" height="17" viewBox="0 0 16 17" fill="none" xmlns="http://www.w3.org/2000/svg">
<path d="M6.00098 15.1663C5.84064 15.1663 5.68525 15.1618 5.53516 15.1555C5.68666 15.1614 5.84211 15.1663 6.00098 15.1663ZM14.667 10.5002C14.667 10.6603 14.6625 10.8152 14.6562 10.9651C14.6621 10.8138 14.667 10.6589 14.667 10.5002ZM1.33398 6.50024C1.33398 6.33435 1.33802 6.17373 1.34473 6.0188C1.33844 6.17525 1.33398 6.33593 1.33398 6.50024ZM10.001 1.83325C10.1666 1.83326 10.3267 1.83731 10.4814 1.84399C10.3252 1.83772 10.1651 1.83326 10.001 1.83325Z" fill="#F5F5F5" stroke="#F5F5F5"/>
<mask id="path-2-inside-1_6727_9062" fill="white">
<path d="M9.88722 8.95337C9.61388 8.95337 9.38722 8.7267 9.38722 8.45337V6.12671H7.06055C6.78721 6.12671 6.56055 5.90004 6.56055 5.62671C6.56055 5.35338 6.78721 5.12671 7.06055 5.12671H9.88722C10.1606 5.12671 10.3872 5.35338 10.3872 5.62671V8.45337C10.3872 8.7267 10.1606 8.95337 9.88722 8.95337Z"/>
</mask>
<path d="M9.88722 8.95337C9.61388 8.95337 9.38722 8.7267 9.38722 8.45337V6.12671H7.06055C6.78721 6.12671 6.56055 5.90004 6.56055 5.62671C6.56055 5.35338 6.78721 5.12671 7.06055 5.12671H9.88722C10.1606 5.12671 10.3872 5.35338 10.3872 5.62671V8.45337C10.3872 8.7267 10.1606 8.95337 9.88722 8.95337Z" fill="#F5F5F5"/>
<path d="M9.38722 6.12671H10.3872V5.12671H9.38722V6.12671ZM9.88722 7.95337C10.1662 7.95337 10.3872 8.17442 10.3872 8.45337H8.38722C8.38722 9.27899 9.0616 9.95337 9.88722 9.95337V7.95337ZM10.3872 8.45337V6.12671H8.38722V8.45337H10.3872ZM9.38722 5.12671H7.06055V7.12671H9.38722V5.12671ZM7.06055 5.12671C7.3395 5.12671 7.56055 5.34776 7.56055 5.62671H5.56055C5.56055 6.45233 6.23493 7.12671 7.06055 7.12671V5.12671ZM7.56055 5.62671C7.56055 5.90566 7.3395 6.12671 7.06055 6.12671V4.12671C6.23493 4.12671 5.56055 4.80109 5.56055 5.62671H7.56055ZM7.06055 6.12671H9.88722V4.12671H7.06055V6.12671ZM9.88722 6.12671C9.60827 6.12671 9.38722 5.90566 9.38722 5.62671H11.3872C11.3872 4.80109 10.7128 4.12671 9.88722 4.12671V6.12671ZM9.38722 5.62671V8.45337H11.3872V5.62671H9.38722ZM9.38722 8.45337C9.38722 8.17442 9.60827 7.95337 9.88722 7.95337V9.95337C10.7128 9.95337 11.3872 9.27899 11.3872 8.45337H9.38722Z" fill="#F5F5F5" mask="url(#path-2-inside-1_6727_9062)"/>
<mask id="path-4-inside-2_6727_9062" fill="white">
<path d="M6.11357 9.89325C5.9869 9.89325 5.86023 9.84658 5.76023 9.74658C5.5669 9.55325 5.5669 9.23325 5.76023 9.03992L9.53357 5.26658C9.7269 5.07325 10.0469 5.07325 10.2402 5.26658C10.4336 5.45992 10.4336 5.77992 10.2402 5.97326L6.4669 9.74658C6.37357 9.84658 6.24023 9.89325 6.11357 9.89325Z"/>
</mask>
<path d="M6.11357 9.89325C5.9869 9.89325 5.86023 9.84658 5.76023 9.74658C5.5669 9.55325 5.5669 9.23325 5.76023 9.03992L9.53357 5.26658C9.7269 5.07325 10.0469 5.07325 10.2402 5.26658C10.4336 5.45992 10.4336 5.77992 10.2402 5.97326L6.4669 9.74658C6.37357 9.84658 6.24023 9.89325 6.11357 9.89325Z" fill="#F5F5F5"/>
<path d="M10.2402 5.97326L10.9473 6.68036L10.9473 6.68036L10.2402 5.97326ZM6.4669 9.74658L5.75979 9.03947L5.74761 9.05166L5.73584 9.06426L6.4669 9.74658ZM6.11357 8.89325C6.23781 8.89325 6.36993 8.94206 6.46734 9.03948L5.05313 10.4537C5.35054 10.7511 5.73599 10.8932 6.11357 10.8932V8.89325ZM6.46734 9.03948C6.66453 9.23667 6.66453 9.54983 6.46734 9.74702L5.05313 8.33281C4.46927 8.91667 4.46927 9.86983 5.05313 10.4537L6.46734 9.03948ZM6.46734 9.74702L10.2407 5.97369L8.82646 4.55948L5.05313 8.33281L6.46734 9.74702ZM10.2407 5.97369C10.0435 6.17088 9.73032 6.17088 9.53313 5.97369L10.9473 4.55948C10.3635 3.97562 9.41032 3.97562 8.82646 4.55948L10.2407 5.97369ZM9.53313 5.97369C9.33594 5.7765 9.33594 5.46334 9.53313 5.26615L10.9473 6.68036C11.5312 6.09651 11.5312 5.14333 10.9473 4.55948L9.53313 5.97369ZM9.53313 5.26615L5.75979 9.03947L7.17401 10.4537L10.9473 6.68036L9.53313 5.26615ZM5.73584 9.06426C5.86201 8.92909 6.01095 8.89325 6.11357 8.89325V10.8932C6.46952 10.8932 6.88512 10.7641 7.19795 10.4289L5.73584 9.06426Z" fill="#F5F5F5" mask="url(#path-4-inside-2_6727_9062)"/>
<path d="M6.81738 12.095C7.21064 12.1316 7.60516 12.1525 8 12.1526L7.99902 12.1536C7.60497 12.1536 7.21062 12.1318 6.81738 12.095ZM11.3848 11.6936C10.2913 11.9975 9.16035 12.1498 8.03125 12.1526C9.16198 12.15 10.2917 11.9959 11.3848 11.6936Z" fill="#292D32" stroke="#F5F5F5"/>
</svg>
