<svg width="40" height="40" viewBox="0 0 40 40" fill="none" xmlns="http://www.w3.org/2000/svg">
<path d="M7.63326 30.2833H7.08333C4.55 30.2833 2.5 28.2333 2.5 25.7V21.5333C2.5 19 4.55 16.95 7.08333 16.95H7.63326C10.1666 16.95 12.2166 19 12.2166 21.5333V25.7C12.2166 28.2167 10.1666 30.2833 7.63326 30.2833ZM7.08333 19.45C5.93333 19.45 5 20.3833 5 21.5333V25.7C5 26.85 5.93333 27.7833 7.08333 27.7833H7.63326C8.78326 27.7833 9.71659 26.85 9.71659 25.7V21.5333C9.71659 20.3833 8.78326 19.45 7.63326 19.45H7.08333Z" fill="black"/>
<path d="M32.6332 19.45C31.9499 19.45 31.3832 18.8833 31.3832 18.2V16.4C31.3832 10.1167 26.2833 5.01666 20 5.01666C13.7166 5.01666 8.6167 10.1167 8.6167 16.4V18.2C8.6167 18.8833 8.05003 19.45 7.3667 19.45C6.68337 19.45 6.1167 18.8833 6.1167 18.2V16.4C6.1167 8.75 12.35 2.51666 20 2.51666C27.65 2.51666 33.8832 8.75 33.8832 16.4V18.2C33.8832 18.8833 33.3332 19.45 32.6332 19.45Z" fill="black"/>
<path d="M23.5999 37.5H21.7998C21.1165 37.5 20.5498 36.9334 20.5498 36.25C20.5498 35.5667 21.1165 35 21.7998 35H23.5999C27.2833 35 30.4998 32.3833 31.2165 28.7667C31.3498 28.0833 32.0165 27.65 32.6832 27.7833C33.3499 27.9167 33.7998 28.5834 33.6665 29.25C32.7165 34.0334 28.4833 37.5 23.5999 37.5Z" fill="black"/>
<path d="M32.9165 30.2833H32.3665C29.8332 30.2833 27.7832 28.2333 27.7832 25.7V21.5333C27.7832 19 29.8332 16.95 32.3665 16.95H32.9165C35.4498 16.95 37.4998 19 37.4998 21.5333V25.7C37.4998 28.2167 35.4498 30.2833 32.9165 30.2833ZM32.3665 19.45C31.2165 19.45 30.2832 20.3833 30.2832 21.5333V25.7C30.2832 26.85 31.2165 27.7833 32.3665 27.7833H32.9165C34.0665 27.7833 34.9998 26.85 34.9998 25.7V21.5333C34.9998 20.3833 34.0665 19.45 32.9165 19.45H32.3665Z" fill="black"/>
</svg>
