<svg width="24" height="24" viewBox="0 0 24 24" fill="none" xmlns="http://www.w3.org/2000/svg">
<path fill-rule="evenodd" clip-rule="evenodd" d="M24 12.0001C24 18.6275 18.6274 24.0001 12 24.0001C5.37258 24.0001 0 18.6275 0 12.0001C0 5.37264 5.37258 6.10352e-05 12 6.10352e-05C18.6274 6.10352e-05 24 5.37264 24 12.0001ZM12.43 8.85899C11.2628 9.34446 8.93014 10.3493 5.43189 11.8734C4.86383 12.0993 4.56626 12.3203 4.53917 12.5364C4.49339 12.9016 4.95071 13.0454 5.57347 13.2412C5.65818 13.2678 5.74595 13.2954 5.83594 13.3247C6.44864 13.5238 7.27283 13.7568 7.70129 13.7661C8.08994 13.7745 8.52373 13.6143 9.00264 13.2854C12.2712 11.0791 13.9584 9.96387 14.0643 9.93983C14.139 9.92287 14.2426 9.90154 14.3128 9.96391C14.3829 10.0263 14.376 10.1444 14.3686 10.1761C14.3233 10.3692 12.5281 12.0382 11.5991 12.9018C11.3095 13.1711 11.1041 13.3621 11.0621 13.4057C10.968 13.5034 10.8721 13.5958 10.78 13.6847C10.2108 14.2334 9.78391 14.6449 10.8036 15.3168C11.2936 15.6398 11.6858 15.9068 12.077 16.1732C12.5042 16.4641 12.9303 16.7543 13.4816 17.1157C13.6221 17.2078 13.7562 17.3034 13.8869 17.3966C14.3841 17.751 14.8307 18.0695 15.3826 18.0187C15.7032 17.9892 16.0345 17.6877 16.2027 16.7884C16.6002 14.6632 17.3816 10.0585 17.5622 8.16103C17.578 7.99479 17.5581 7.78203 17.5422 7.68864C17.5262 7.59524 17.4928 7.46217 17.3714 7.36366C17.2276 7.247 17.0056 7.2224 16.9064 7.22414C16.455 7.2321 15.7626 7.47288 12.43 8.85899Z" fill="#E0E0E0"/>
</svg>
