<svg width="24" height="24" viewBox="0 0 24 24" fill="none" xmlns="http://www.w3.org/2000/svg">
<g clip-path="url(#clip0_6727_6845)">
<path d="M12 24C18.6274 24 24 18.6274 24 12C24 5.37258 18.6274 0 12 0C5.37258 0 0 5.37258 0 12C0 18.6274 5.37258 24 12 24Z" fill="#D32F2F"/>
<path d="M16.449 7.43463L5.625 5.44263L11.3212 19.7766L19.2585 10.1061L16.449 7.43463ZM16.275 8.31213L17.931 9.88638L13.4025 10.7061L16.275 8.31213ZM12.4185 10.5419L7.6455 6.58338L15.447 8.01888L12.4185 10.5419ZM12.0787 11.2424L11.3003 17.6774L7.104 7.11513L12.0787 11.2416V11.2424ZM12.7988 11.5836L17.814 10.6761L12.0615 17.6834L12.7988 11.5836Z" fill="white"/>
</g>
<defs>
<clipPath id="clip0_6727_6845">
<rect width="24" height="24" fill="white"/>
</clipPath>
</defs>
</svg>
