<svg width="24" height="24" viewBox="0 0 24 24" fill="none" xmlns="http://www.w3.org/2000/svg">
<g clip-path="url(#clip0_6650_14890)">
<path d="M6.3392 18.4C6.1492 18.4 5.9593 18.33 5.8093 18.18C5.5193 17.89 5.5193 17.41 5.8093 17.12L17.1192 5.81003C17.4092 5.52003 17.8893 5.52003 18.1793 5.81003C18.4693 6.10003 18.4693 6.58004 18.1793 6.87004L6.86923 18.18C6.72923 18.33 6.5392 18.4 6.3392 18.4Z" fill="#FFC107"/>
<path d="M17.6591 15.7101C17.2491 15.7101 16.9091 15.3701 16.9091 14.9601V7.09009H9.03906C8.62906 7.09009 8.28906 6.75009 8.28906 6.34009C8.28906 5.93009 8.62906 5.59009 9.03906 5.59009H17.6591C18.0691 5.59009 18.4091 5.93009 18.4091 6.34009V14.9601C18.4091 15.3701 18.0691 15.7101 17.6591 15.7101Z" fill="#FFC107"/>
</g>
<defs>
<clipPath id="clip0_6650_14890">
<rect width="24" height="24" fill="white"/>
</clipPath>
</defs>
</svg>
