<svg width="16" height="16" viewBox="0 0 16 16" fill="none" xmlns="http://www.w3.org/2000/svg">
<path d="M4.33398 15.1667C4.06065 15.1667 3.83398 14.94 3.83398 14.6667V10C3.83398 9.72667 4.06065 9.5 4.33398 9.5C4.60732 9.5 4.83398 9.72667 4.83398 10V14.6667C4.83398 14.94 4.60732 15.1667 4.33398 15.1667Z" fill="#F5F5F5"/>
<path d="M4.33398 3.83325C4.06065 3.83325 3.83398 3.60659 3.83398 3.33325V1.33325C3.83398 1.05992 4.06065 0.833252 4.33398 0.833252C4.60732 0.833252 4.83398 1.05992 4.83398 1.33325V3.33325C4.83398 3.60659 4.60732 3.83325 4.33398 3.83325Z" fill="#F5F5F5"/>
<path d="M11.666 15.1667C11.3927 15.1667 11.166 14.9401 11.166 14.6667V12.6667C11.166 12.3934 11.3927 12.1667 11.666 12.1667C11.9393 12.1667 12.166 12.3934 12.166 12.6667V14.6667C12.166 14.9401 11.9393 15.1667 11.666 15.1667Z" fill="#F5F5F5"/>
<path d="M11.666 6.49992C11.3927 6.49992 11.166 6.27325 11.166 5.99992V1.33325C11.166 1.05992 11.3927 0.833252 11.666 0.833252C11.9393 0.833252 12.166 1.05992 12.166 1.33325V5.99992C12.166 6.27325 11.9393 6.49992 11.666 6.49992Z" fill="#F5F5F5"/>
<path d="M5.00065 10.4999H3.66732C2.52065 10.4999 1.83398 9.81325 1.83398 8.66659V4.66659C1.83398 3.51992 2.52065 2.83325 3.66732 2.83325H5.00065C6.14732 2.83325 6.83398 3.51992 6.83398 4.66659V8.66659C6.83398 9.81325 6.14732 10.4999 5.00065 10.4999ZM3.66732 3.83325C3.07398 3.83325 2.83398 4.07325 2.83398 4.66659V8.66659C2.83398 9.25992 3.07398 9.49992 3.66732 9.49992H5.00065C5.59398 9.49992 5.83398 9.25992 5.83398 8.66659V4.66659C5.83398 4.07325 5.59398 3.83325 5.00065 3.83325H3.66732Z" fill="#F5F5F5"/>
<path d="M12.3327 13.1667H10.9993C9.85268 13.1667 9.16602 12.48 9.16602 11.3333V7.33333C9.16602 6.18667 9.85268 5.5 10.9993 5.5H12.3327C13.4793 5.5 14.166 6.18667 14.166 7.33333V11.3333C14.166 12.48 13.4793 13.1667 12.3327 13.1667ZM10.9993 6.5C10.406 6.5 10.166 6.74 10.166 7.33333V11.3333C10.166 11.9267 10.406 12.1667 10.9993 12.1667H12.3327C12.926 12.1667 13.166 11.9267 13.166 11.3333V7.33333C13.166 6.74 12.926 6.5 12.3327 6.5H10.9993Z" fill="#F5F5F5"/>
</svg>
