<svg width="33" height="32" viewBox="0 0 33 32" fill="none" xmlns="http://www.w3.org/2000/svg">
<g clip-path="url(#clip0_3985_76034)">
<path d="M16.3999 32C25.2365 32 32.3999 24.8366 32.3999 16C32.3999 7.16344 25.2365 0 16.3999 0C7.56335 0 0.399902 7.16344 0.399902 16C0.399902 24.8366 7.56335 32 16.3999 32Z" fill="#C3A634"/>
<path fill-rule="evenodd" clip-rule="evenodd" d="M13.6479 14.61H17.9619V16.896H13.6479V21.714H16.3689C17.4459 21.714 18.3269 21.569 19.0129 21.277C19.6989 20.986 20.2369 20.583 20.6279 20.067C21.0278 19.5304 21.3 18.9097 21.4239 18.252C21.5684 17.5102 21.6387 16.7558 21.6339 16C21.6387 15.2442 21.5684 14.4898 21.4239 13.748C21.3002 13.0903 21.0279 12.4695 20.6279 11.933C20.2369 11.417 19.6979 11.014 19.0129 10.723C18.3269 10.431 17.4459 10.286 16.3689 10.286H13.6479V14.611V14.61ZM10.8819 16.896H9.3999V14.611H10.8819V8H17.4309C18.6409 8 19.6879 8.21 20.5729 8.627C21.4579 9.046 22.1799 9.617 22.7409 10.342C23.3009 11.066 23.7179 11.914 23.9909 12.885C24.2639 13.856 24.3999 14.895 24.3999 16C24.4068 17.0522 24.2688 18.1004 23.9899 19.115C23.7179 20.085 23.3009 20.934 22.7399 21.658C22.1799 22.383 21.4579 22.954 20.5729 23.373C19.6879 23.791 18.6399 24 17.4309 24H10.8819V16.896Z" fill="white"/>
</g>
<defs>
<clipPath id="clip0_3985_76034">
<rect width="32" height="32" fill="white" transform="translate(0.399902)"/>
</clipPath>
</defs>
</svg>
