<svg width="16" height="16" viewBox="0 0 16 16" fill="none" xmlns="http://www.w3.org/2000/svg">
<g clip-path="url(#clip0_6650_9011)">
<path d="M8.29883 10.3088C8.28576 10.3108 8.27287 10.3139 8.25977 10.3157C8.27286 10.3139 8.28576 10.3109 8.29883 10.3088ZM14.6484 6.08618C14.5956 6.48305 14.3632 6.84465 14.0156 7.05786L9.02441 10.05C8.84074 10.159 8.64478 10.2353 8.44336 10.2815C8.64413 10.2349 8.83979 10.1582 9.02246 10.0491H9.02344L14.0078 7.05493L14.0088 7.05688C14.3564 6.85013 14.5944 6.48489 14.6484 6.08618ZM1.98242 7.05981V7.05884L4.27832 8.43774L1.97656 7.05786C1.95238 7.04302 1.93029 7.02525 1.90723 7.00903C1.93209 7.02582 1.95617 7.04462 1.98242 7.05981Z" fill="#F5F5F5" stroke="#F5F5F5"/>
<path d="M11.9987 13.8334H3.9987C2.25203 13.8334 0.832031 12.4134 0.832031 10.6667V5.33341C0.832031 3.58675 2.25203 2.16675 3.9987 2.16675H11.9987C13.7454 2.16675 15.1654 3.58675 15.1654 5.33341V10.6667C15.1654 12.4134 13.7454 13.8334 11.9987 13.8334ZM3.9987 3.16675C2.80536 3.16675 1.83203 4.14008 1.83203 5.33341V10.6667C1.83203 11.8601 2.80536 12.8334 3.9987 12.8334H11.9987C13.192 12.8334 14.1654 11.8601 14.1654 10.6667V5.33341C14.1654 4.14008 13.192 3.16675 11.9987 3.16675H3.9987Z" fill="#F5F5F5"/>
</g>
<defs>
<clipPath id="clip0_6650_9011">
<rect width="16" height="16" fill="white"/>
</clipPath>
</defs>
</svg>
