<svg width="24" height="24" viewBox="0 0 24 24" fill="none" xmlns="http://www.w3.org/2000/svg">
<path d="M11.9998 6.10352e-05C5.37253 6.10352e-05 0 5.39244 0 12.0441C0 17.6923 3.87448 22.4319 9.1011 23.7336V15.7248H6.62675V12.0441H9.1011V10.4582C9.1011 6.35885 10.9495 4.45878 14.9594 4.45878C15.7197 4.45878 17.0315 4.60861 17.5681 4.75796V8.09416C17.2849 8.0643 16.7929 8.04936 16.1819 8.04936C14.2144 8.04936 13.4541 8.79754 13.4541 10.7424V12.0441H17.3737L16.7003 15.7248H13.4541V24.0001C19.3959 23.2798 24 18.202 24 12.0441C23.9995 5.39244 18.627 6.10352e-05 11.9998 6.10352e-05Z" fill="#E0E0E0"/>
</svg>
