<svg width="24" height="24" viewBox="0 0 24 24" fill="none" xmlns="http://www.w3.org/2000/svg">
<g clip-path="url(#clip0_6636_10520)">
<path d="M12.0298 2C6.50979 2 2.02979 6.48 2.02979 12C2.02979 17.52 6.50979 22 12.0298 22C17.5498 22 22.0298 17.52 22.0298 12C22.0298 9.35 20.9798 6.8 19.1098 4.92C17.2298 3.05 14.6898 2 12.0298 2Z" stroke="#F5F5F5" stroke-width="1.5" stroke-linecap="round" stroke-linejoin="round"/>
<path d="M2.5498 15.2L2.6098 15.14C4.1798 13.57 7.13981 16.9 8.89981 15.14C10.4698 13.57 8.10982 11.21 10.4698 8.85002C12.6898 6.63002 11.2598 4.92001 8.89981 2.56001L8.84982 2.51001" stroke="#F5F5F5" stroke-width="1.5" stroke-linecap="round" stroke-linejoin="round"/>
<path d="M11.45 21.97C11.37 21.81 11.31 21.64 11.26 21.46C10.96 20.3 11.29 19.07 12.14 18.23C12.99 17.39 14.22 17.07 15.38 17.38C16.53 17.7 17.43 18.6 17.73 19.76C17.76 19.89 17.78 20.02 17.79 20.16" stroke="#F5F5F5" stroke-width="1.5" stroke-linecap="round" stroke-linejoin="round"/>
</g>
<defs>
<clipPath id="clip0_6636_10520">
<rect width="24" height="24" fill="white"/>
</clipPath>
</defs>
</svg>
