<svg width="117" height="117" viewBox="0 0 117 117" fill="none" xmlns="http://www.w3.org/2000/svg">
<g filter="url(#filter0_i_3985_75910)">
<rect x="0.5" y="116.5" width="116" height="116" rx="58" transform="rotate(-90 0.5 116.5)" fill="#F8F8F8" fill-opacity="0.01"/>
<rect x="1.95086" y="115.049" width="113.098" height="113.098" rx="56.5491" transform="rotate(-90 1.95086 115.049)" stroke="#F8F8F8" stroke-opacity="0.1" stroke-width="2.90171"/>
<path opacity="0.2" d="M59 90C76.6731 90 91 75.6731 91 58C91 40.3269 76.6731 26 59 26C41.3269 26 27 40.3269 27 58C27 75.6731 41.3269 90 59 90Z" fill="white"/>
<path fill-rule="evenodd" clip-rule="evenodd" d="M39.4604 38.4659C39.9569 38.5353 40.4867 38.6046 40.8167 39.0317C42.2756 40.5212 43.7234 42.0244 45.1906 43.5083C45.5734 43.8217 45.6649 44.3043 45.7398 44.7675C45.5151 44.773 45.0714 44.7869 44.8467 44.7952C43.1798 43.1033 41.5295 41.3921 39.8571 39.703C39.4854 39.3979 39.5409 38.8903 39.4604 38.4659Z" fill="white"/>
<path fill-rule="evenodd" clip-rule="evenodd" d="M46.8154 38.5413C47.1427 38.544 47.4728 38.5607 47.8 38.594C48.9372 40.0889 49.9301 41.6893 51.0312 43.2119C51.3974 43.6585 51.5555 44.2132 51.622 44.779C51.3946 44.779 50.9397 44.7818 50.7123 44.7818C49.6084 43.1592 48.499 41.5395 47.3674 39.9364C47.0484 39.5342 46.9208 39.0322 46.8154 38.5413Z" fill="white"/>
<path fill-rule="evenodd" clip-rule="evenodd" d="M54.6704 38.5422C54.92 38.5394 55.4193 38.5339 55.6661 38.5311C56.1238 40.6363 56.8643 42.697 57.0113 44.8549C56.7672 44.7966 56.2791 44.6773 56.035 44.6191C55.5496 42.6027 54.9727 40.5974 54.6704 38.5422Z" fill="white"/>
<path fill-rule="evenodd" clip-rule="evenodd" d="M39.5132 45.8693C40.0873 45.9414 40.6282 46.1688 41.0747 46.5405C42.4837 47.6277 43.9786 48.6068 45.3765 49.7106C45.7315 49.9409 45.5984 50.4207 45.6677 50.7702C44.5722 50.7702 43.8205 49.9187 42.9857 49.3418C41.8263 48.5208 40.6892 47.6749 39.5381 46.8428C39.5326 46.6015 39.5187 46.1133 39.5132 45.8693Z" fill="white"/>
<path fill-rule="evenodd" clip-rule="evenodd" d="M48.1245 47.0697C49.098 46.9892 49.6472 47.8352 50.238 48.4509C50.8149 49.1249 51.6719 49.7184 51.6137 50.7114C51.4001 50.7141 50.973 50.7169 50.7594 50.7169C49.9329 49.7711 48.9704 48.9363 48.2438 47.9101C48.2133 47.702 48.155 47.2805 48.1245 47.0697Z" fill="white"/>
<path fill-rule="evenodd" clip-rule="evenodd" d="M54.7534 47.1427C54.9781 47.1372 55.4274 47.1316 55.6521 47.1261C56.1568 48.291 56.8807 49.3976 57 50.6901C56.6949 50.6984 56.3926 50.704 56.0875 50.7095C55.6021 49.5391 54.8782 48.4324 54.7534 47.1427Z" fill="white"/>
<path fill-rule="evenodd" clip-rule="evenodd" d="M39.5349 53.4998C41.6151 53.7993 43.6121 54.4955 45.6534 54.9892C45.6479 55.2305 45.6423 55.7103 45.6368 55.9516C43.54 55.6936 41.5319 54.9864 39.4878 54.4733C39.4989 54.2292 39.5238 53.7438 39.5349 53.4998Z" fill="white"/>
<path fill-rule="evenodd" clip-rule="evenodd" d="M48.1333 53.5049C49.3842 53.7046 50.4049 54.495 51.5198 55.0331C51.5337 55.2689 51.5642 55.7404 51.5809 55.9761C50.2579 55.8652 49.2067 54.9971 48.0557 54.434C48.0751 54.201 48.1139 53.7379 48.1333 53.5049Z" fill="white"/>
<path fill-rule="evenodd" clip-rule="evenodd" d="M55.7656 54.6608C56.1761 54.6691 56.5866 54.6774 56.9971 54.6774C56.9999 55.0796 57.0026 55.479 57.0054 55.8811C56.5949 55.8617 56.1872 55.8811 55.7823 55.9422C55.7878 55.515 55.7823 55.0879 55.7656 54.6608Z" fill="white"/>
<path fill-rule="evenodd" clip-rule="evenodd" d="M60.9004 44.7742C61.1833 42.6524 61.8046 40.5916 62.2927 38.5115C62.5312 38.5198 63.0111 38.5392 63.2524 38.5503C62.9528 40.6665 62.3232 42.719 61.8573 44.8019C61.616 44.7936 61.1389 44.7797 60.9004 44.7742Z" fill="white"/>
<path fill-rule="evenodd" clip-rule="evenodd" d="M70.1387 38.5316C70.38 38.5372 70.8626 38.5455 71.1039 38.5483C71.0345 39.5467 70.3051 40.2706 69.7892 41.0667C68.9183 42.2621 68.1417 43.5268 67.232 44.6917C67.0073 44.7305 66.5608 44.8054 66.3389 44.8442C66.3971 44.3894 66.4054 43.8985 66.7105 43.524C67.8421 41.8516 69.0154 40.2096 70.1387 38.5316Z" fill="white"/>
<path fill-rule="evenodd" clip-rule="evenodd" d="M77.2893 38.8523C77.5694 38.5001 78.0409 38.5362 78.4431 38.4585C78.4403 38.6887 78.4403 39.1463 78.4376 39.3765C76.6348 41.1489 74.893 42.985 73.1179 44.785C72.9099 44.7878 72.4966 44.7933 72.2886 44.7933C72.2941 44.5798 72.3024 44.1499 72.3052 43.9363C73.9943 42.2694 75.6196 40.5387 77.2893 38.8523Z" fill="white"/>
<path fill-rule="evenodd" clip-rule="evenodd" d="M77.245 46.2711C77.5751 45.9688 78.0272 45.9549 78.4404 45.8634C78.4404 46.1075 78.4376 46.5956 78.4376 46.8397C76.804 48.0157 75.1787 49.1972 73.5534 50.3788C73.2206 50.6533 72.7823 50.6922 72.3802 50.7948C72.3497 50.5757 72.2887 50.1402 72.2554 49.9239C73.9084 48.6897 75.5864 47.4943 77.245 46.2711Z" fill="white"/>
<path fill-rule="evenodd" clip-rule="evenodd" d="M60.9751 50.7015C61.0611 49.3979 61.8155 48.2912 62.2981 47.1152C62.5144 47.1263 62.9443 47.1457 63.1579 47.1568C63.0802 48.4355 62.3231 49.5144 61.8571 50.6709C61.5631 50.682 61.2691 50.6904 60.9751 50.7015Z" fill="white"/>
<path fill-rule="evenodd" clip-rule="evenodd" d="M66.356 49.952C67.2102 48.9924 68.0922 48.0633 68.9631 47.1202C69.1767 47.1258 69.6066 47.1397 69.8201 47.1452C69.7536 47.5224 69.7869 47.9551 69.4762 48.238C68.7412 49.0728 67.9508 49.855 67.213 50.6898C67.0133 50.6954 66.6139 50.7092 66.417 50.7176C66.4003 50.5262 66.3726 50.1434 66.356 49.952Z" fill="white"/>
<path fill-rule="evenodd" clip-rule="evenodd" d="M66.4807 55.0476C67.5485 54.4652 68.5802 53.6719 69.8311 53.5582C69.8422 53.7773 69.8644 54.2128 69.8783 54.4319C68.7161 54.9755 67.6705 55.8991 66.3364 55.949C66.3725 55.7244 66.4446 55.2723 66.4807 55.0476Z" fill="white"/>
<path fill-rule="evenodd" clip-rule="evenodd" d="M72.2969 54.9814C74.3576 54.5154 76.3601 53.7471 78.4653 53.5142C78.4403 53.8525 78.4126 54.1909 78.3848 54.5293C76.3435 54.9425 74.3798 55.7247 72.2996 55.9466C72.2996 55.7053 72.2969 55.2227 72.2969 54.9814Z" fill="white"/>
<path fill-rule="evenodd" clip-rule="evenodd" d="M60.9531 54.684C61.3581 54.6923 61.763 54.6951 62.1679 54.6951C62.1624 55.0944 62.1596 55.4938 62.1596 55.8905C61.763 55.8905 61.3636 55.8932 60.9642 55.8988C60.9642 55.4938 60.9614 55.0889 60.9531 54.684Z" fill="white"/>
<path fill-rule="evenodd" clip-rule="evenodd" d="M39.502 61.5651C41.5377 61.0576 43.5403 60.3781 45.6232 60.0896C45.6315 60.3254 45.6454 60.7996 45.6509 61.0382C43.6096 61.5235 41.6182 62.253 39.5269 62.4943C39.5214 62.2613 39.5103 61.7953 39.502 61.5651Z" fill="white"/>
<path fill-rule="evenodd" clip-rule="evenodd" d="M48.0752 61.6015C49.2124 61.0357 50.2635 60.2091 51.5643 60.0732C51.5588 60.2979 51.5505 60.7528 51.5449 60.9802C50.4078 61.5155 49.3788 62.3559 48.0974 62.5084C48.0918 62.281 48.0807 61.8289 48.0752 61.6015Z" fill="white"/>
<path fill-rule="evenodd" clip-rule="evenodd" d="M55.7832 60.1312C56.1826 60.1423 56.582 60.1506 56.9814 60.1534C56.9786 60.5556 56.9786 60.9577 56.9814 61.3571C56.582 61.3599 56.1826 61.3627 55.7832 61.371C55.7915 60.9577 55.7915 60.5445 55.7832 60.1312Z" fill="white"/>
<path fill-rule="evenodd" clip-rule="evenodd" d="M44.1121 65.8505C44.542 65.4761 45.0856 65.3346 45.6348 65.257C45.6348 65.5648 45.632 65.8727 45.6292 66.1806C43.9845 67.3288 42.3841 68.5381 40.7616 69.7141C40.4066 70.0025 39.9545 70.0941 39.519 70.1911C39.5884 69.8222 39.3942 69.2925 39.7631 69.0512C41.186 67.9501 42.6809 66.9405 44.1121 65.8505Z" fill="white"/>
<path fill-rule="evenodd" clip-rule="evenodd" d="M49.5674 66.5976C50.1166 66.0457 50.5825 65.2607 51.459 65.2607C51.4978 65.4577 51.5782 65.8515 51.6171 66.0484C50.7545 67.0109 49.8753 67.9566 48.9905 68.8997C48.7714 68.8997 48.3331 68.9024 48.114 68.9024C48.0835 67.8845 48.9822 67.2965 49.5674 66.5976Z" fill="white"/>
<path fill-rule="evenodd" clip-rule="evenodd" d="M54.7539 68.8906C54.9453 67.6203 55.4972 66.4027 56.2073 65.346C56.3986 65.3432 56.7842 65.3404 56.9755 65.3376C56.8951 66.6357 56.1379 67.7368 55.6581 68.9072C55.4307 68.9044 54.9786 68.8961 54.7539 68.8906Z" fill="white"/>
<path fill-rule="evenodd" clip-rule="evenodd" d="M44.5501 71.5513C44.8441 71.1879 45.335 71.2628 45.7455 71.2046C45.7788 72.228 44.8718 72.8133 44.2616 73.4928C42.9359 74.7853 41.7072 76.1804 40.3454 77.434C40.1263 77.4673 39.6853 77.5366 39.4634 77.5699C39.5438 77.1345 39.48 76.6186 39.8739 76.3163C41.4382 74.7326 42.9664 73.1128 44.5501 71.5513Z" fill="white"/>
<path fill-rule="evenodd" clip-rule="evenodd" d="M50.7268 71.2449C50.9515 71.2476 51.398 71.2532 51.6227 71.256C51.5672 72.3127 50.81 73.0976 50.2581 73.9352C49.4205 75.089 48.6855 76.3149 47.8174 77.4438C47.479 77.4909 47.1406 77.5131 46.8022 77.5104C46.8882 76.5535 47.5705 75.849 48.0725 75.089C48.9601 73.8076 49.8421 72.5263 50.7268 71.2449Z" fill="white"/>
<path fill-rule="evenodd" clip-rule="evenodd" d="M56.0461 71.2739C56.3762 71.2822 56.709 71.2684 57.039 71.2323C56.7977 73.3652 56.1154 75.4176 55.6855 77.5172C55.4331 77.5144 54.9256 77.5033 54.6704 77.4978C54.9589 75.3899 55.6245 73.3569 56.0461 71.2739Z" fill="white"/>
<path fill-rule="evenodd" clip-rule="evenodd" d="M60.9443 60.1395C61.3521 60.1451 61.7625 60.1451 62.173 60.1395C62.1675 60.5472 62.1675 60.955 62.1758 61.3654C61.7653 61.3599 61.3576 61.3599 60.9471 61.3654C60.9527 60.955 60.9527 60.5472 60.9443 60.1395Z" fill="white" fill-opacity="0.32549"/>
<path fill-rule="evenodd" clip-rule="evenodd" d="M66.4085 60.0449C67.6871 60.2252 68.7356 61.024 69.8616 61.5926C69.8533 61.8228 69.8422 62.286 69.8367 62.5162C68.5636 62.3498 67.5346 61.5288 66.4058 60.9935C66.4058 60.755 66.4085 60.2807 66.4085 60.0449Z" fill="white" fill-opacity="0.32549"/>
<path fill-rule="evenodd" clip-rule="evenodd" d="M72.3077 60.0752C74.4072 60.3553 76.4236 61.0459 78.4705 61.5646C78.4594 61.8059 78.44 62.2857 78.4289 62.527C76.3404 62.2497 74.3351 61.5535 72.291 61.0543C72.2966 60.8102 72.3049 60.322 72.3077 60.0752Z" fill="white" fill-opacity="0.32549"/>
<path fill-rule="evenodd" clip-rule="evenodd" d="M60.9585 65.3169C61.258 65.3308 61.5548 65.3419 61.8544 65.3557C62.3481 66.5068 63.0553 67.6023 63.1829 68.8726C62.9582 68.8837 62.5089 68.9031 62.2843 68.9114C61.7933 67.7327 61.0445 66.6232 60.9585 65.3169Z" fill="white" fill-opacity="0.32549"/>
<path fill-rule="evenodd" clip-rule="evenodd" d="M72.316 65.2563C72.8042 65.334 73.3062 65.4311 73.6945 65.7584C75.1978 66.8678 76.7288 67.9384 78.2182 69.0672C78.5621 69.303 78.3485 69.8161 78.3985 70.1683C76.787 69.8549 75.6942 68.457 74.3297 67.6388C73.5752 66.926 72.047 66.5544 72.316 65.2563Z" fill="white" fill-opacity="0.32549"/>
<path fill-rule="evenodd" clip-rule="evenodd" d="M66.3281 65.2916C66.7802 65.3721 67.3349 65.2916 67.5984 65.7576C68.3667 66.7783 69.7063 67.5105 69.8644 68.8695C69.6398 68.8806 69.196 68.9028 68.9713 68.9167C68.1476 68.0208 67.2628 67.1777 66.514 66.2208C66.4696 65.9878 66.3753 65.5246 66.3281 65.2916Z" fill="white" fill-opacity="0.32549"/>
<path fill-rule="evenodd" clip-rule="evenodd" d="M60.8916 71.2645C61.1301 71.2534 61.61 71.234 61.8485 71.2229C62.3422 73.3086 62.969 75.3694 63.2547 77.4939C63.0078 77.5022 62.5141 77.5133 62.2701 77.5189C61.8097 75.4359 61.1662 73.3863 60.8916 71.2645Z" fill="white" fill-opacity="0.32549"/>
<path fill-rule="evenodd" clip-rule="evenodd" d="M66.314 71.2405C66.5497 71.2488 67.0185 71.2654 67.2514 71.2738C68.028 72.4692 68.8573 73.6257 69.6644 74.8017C70.2247 75.6477 70.9736 76.4298 71.1011 77.481C70.8571 77.4865 70.3717 77.4949 70.1276 77.5004C69.2955 76.2606 68.4496 75.0347 67.6009 73.8088C67.0684 73.0072 66.3389 72.2584 66.314 71.2405Z" fill="white" fill-opacity="0.32549"/>
<path fill-rule="evenodd" clip-rule="evenodd" d="M72.2329 71.2468C72.4548 71.2468 72.893 71.2524 73.1149 71.2524C74.7624 72.9609 76.4432 74.6361 78.0879 76.3474C78.4318 76.6331 78.4235 77.0963 78.5123 77.4957C78.2876 77.4957 77.8383 77.4957 77.6136 77.4957C75.9467 75.801 74.2826 74.1008 72.6268 72.3923C72.2828 72.1066 72.3106 71.6434 72.2329 71.2468Z" fill="white" fill-opacity="0.32549"/>
</g>
<defs>
<filter id="filter0_i_3985_75910" x="-192.947" y="-192.947" width="502.895" height="502.895" filterUnits="userSpaceOnUse" color-interpolation-filters="sRGB">
<feFlood flood-opacity="0" result="BackgroundImageFix"/>
<feBlend mode="normal" in="SourceGraphic" in2="BackgroundImageFix" result="shape"/>
<feColorMatrix in="SourceAlpha" type="matrix" values="0 0 0 0 0 0 0 0 0 0 0 0 0 0 0 0 0 0 127 0" result="hardAlpha"/>
<feOffset dx="3.86895" dy="7.7379"/>
<feGaussianBlur stdDeviation="15.4758"/>
<feComposite in2="hardAlpha" operator="arithmetic" k2="-1" k3="1"/>
<feColorMatrix type="matrix" values="0 0 0 0 0.972549 0 0 0 0 0.972549 0 0 0 0 0.972549 0 0 0 0.06 0"/>
<feBlend mode="normal" in2="shape" result="effect1_innerShadow_3985_75910"/>
</filter>
</defs>
</svg>
