<svg width="109" height="109" viewBox="0 0 109 109" fill="none" xmlns="http://www.w3.org/2000/svg">
<g filter="url(#filter0_i_3985_75897)">
<rect x="0.5" y="108.5" width="108" height="108" rx="54" transform="rotate(-90 0.5 108.5)" fill="#F8F8F8" fill-opacity="0.01"/>
<rect x="1.85203" y="107.148" width="105.296" height="105.296" rx="52.648" transform="rotate(-90 1.85203 107.148)" stroke="#F8F8F8" stroke-opacity="0.1" stroke-width="2.70406"/>
<path opacity="0.2" d="M55 86C72.6731 86 87 71.6731 87 54C87 36.3269 72.6731 22 55 22C37.3269 22 23 36.3269 23 54C23 71.6731 37.3269 86 55 86Z" fill="white"/>
<path fill-rule="evenodd" clip-rule="evenodd" d="M52.5596 37.4321C52.5314 37.405 52.5314 37.3508 52.5596 37.2965L55.8314 31.9289C55.8879 31.8204 56.0289 31.8204 56.0571 31.9289L72.219 58.4961C72.2472 58.5504 72.219 58.6046 72.1908 58.6588L62.8829 68.7164C62.8547 68.7435 62.7983 68.7706 62.7701 68.7706H55.2109C55.0699 68.7706 55.0135 68.6351 55.0981 68.5537L60.1469 63.0776L64.8855 57.9811C64.9419 57.9268 64.9419 57.8726 64.9137 57.8184L55.9443 43.0166L52.5596 37.4321ZM57.4232 65.7163L52.556 71.15C52.5424 71.1635 52.5219 71.1771 52.5013 71.1907C52.4808 71.2043 52.4603 71.2179 52.4467 71.2315H49.3842C49.3295 71.2315 49.3022 71.2043 49.2748 71.1771L40.2515 61.0978C40.2241 61.0434 40.2241 60.9891 40.2515 60.9348L51.4896 41.7541C51.5443 41.6726 51.681 41.6726 51.7357 41.7541L54.8802 47.1334C54.9076 47.1606 54.9076 47.2149 54.8802 47.2692L47.2787 60.2284C47.2514 60.2827 47.2787 60.3371 47.3061 60.3914L51.8451 65.4447C51.8725 65.4718 51.9271 65.499 51.9545 65.499H57.3138C57.4505 65.499 57.5052 65.6348 57.4232 65.7163Z" fill="white"/>
</g>
<defs>
<filter id="filter0_i_3985_75897" x="-179.771" y="-179.771" width="468.542" height="468.542" filterUnits="userSpaceOnUse" color-interpolation-filters="sRGB">
<feFlood flood-opacity="0" result="BackgroundImageFix"/>
<feBlend mode="normal" in="SourceGraphic" in2="BackgroundImageFix" result="shape"/>
<feColorMatrix in="SourceAlpha" type="matrix" values="0 0 0 0 0 0 0 0 0 0 0 0 0 0 0 0 0 0 127 0" result="hardAlpha"/>
<feOffset dx="3.60542" dy="7.21083"/>
<feGaussianBlur stdDeviation="14.4217"/>
<feComposite in2="hardAlpha" operator="arithmetic" k2="-1" k3="1"/>
<feColorMatrix type="matrix" values="0 0 0 0 0.972549 0 0 0 0 0.972549 0 0 0 0 0.972549 0 0 0 0.06 0"/>
<feBlend mode="normal" in2="shape" result="effect1_innerShadow_3985_75897"/>
</filter>
</defs>
</svg>
