<svg width="117" height="117" viewBox="0 0 117 117" fill="none" xmlns="http://www.w3.org/2000/svg">
<g filter="url(#filter0_i_3985_75903)">
<rect x="0.5" y="116.5" width="116" height="116" rx="58" transform="rotate(-90 0.5 116.5)" fill="#F8F8F8" fill-opacity="0.01"/>
<rect x="1.95361" y="115.046" width="113.093" height="113.093" rx="56.5464" transform="rotate(-90 1.95361 115.046)" stroke="#F8F8F8" stroke-opacity="0.1" stroke-width="2.90722"/>
<path opacity="0.2" d="M59 90C76.6731 90 91 75.6731 91 58C91 40.3269 76.6731 26 59 26C41.3269 26 27 40.3269 27 58C27 75.6731 41.3269 90 59 90Z" fill="white"/>
<path fill-rule="evenodd" clip-rule="evenodd" d="M67.267 52.2874C67.9175 52.6126 67.9175 53.5408 67.267 53.8661L45.5075 64.7458C44.9207 65.0392 44.2303 64.6125 44.2303 63.9565V42.197C44.2303 41.5409 44.9207 41.1142 45.5075 41.4076L67.267 52.2874Z" fill="white"/>
<path fill-rule="evenodd" clip-rule="evenodd" d="M58.1168 63.7131C57.4663 63.3879 57.4663 62.4596 58.1168 62.1344L74.9532 53.7162C75.54 53.4228 76.2304 53.8495 76.2304 54.5055V71.342C76.2304 71.998 75.54 72.4247 74.9532 72.1313L58.1168 63.7131Z" fill="white"/>
</g>
<defs>
<filter id="filter0_i_3985_75903" x="-193.314" y="-193.314" width="503.629" height="503.629" filterUnits="userSpaceOnUse" color-interpolation-filters="sRGB">
<feFlood flood-opacity="0" result="BackgroundImageFix"/>
<feBlend mode="normal" in="SourceGraphic" in2="BackgroundImageFix" result="shape"/>
<feColorMatrix in="SourceAlpha" type="matrix" values="0 0 0 0 0 0 0 0 0 0 0 0 0 0 0 0 0 0 127 0" result="hardAlpha"/>
<feOffset dx="3.87629" dy="7.75258"/>
<feGaussianBlur stdDeviation="15.5052"/>
<feComposite in2="hardAlpha" operator="arithmetic" k2="-1" k3="1"/>
<feColorMatrix type="matrix" values="0 0 0 0 0.972549 0 0 0 0 0.972549 0 0 0 0 0.972549 0 0 0 0.06 0"/>
<feBlend mode="normal" in2="shape" result="effect1_innerShadow_3985_75903"/>
</filter>
</defs>
</svg>
