<svg width="109" height="109" viewBox="0 0 109 109" fill="none" xmlns="http://www.w3.org/2000/svg">
<g filter="url(#filter0_i_3985_75907)">
<rect x="0.5" y="108.5" width="108" height="108" rx="54" transform="rotate(-90 0.5 108.5)" fill="#F8F8F8" fill-opacity="0.01"/>
<rect x="1.86005" y="107.14" width="105.28" height="105.28" rx="52.6399" transform="rotate(-90 1.86005 107.14)" stroke="#F8F8F8" stroke-opacity="0.1" stroke-width="2.7201"/>
<path opacity="0.1" d="M55 86C72.6731 86 87 71.6731 87 54C87 36.3269 72.6731 22 55 22C37.3269 22 23 36.3269 23 54C23 71.6731 37.3269 86 55 86Z" fill="white"/>
<mask id="mask0_3985_75907" style="mask-type:luminance" maskUnits="userSpaceOnUse" x="23" y="22" width="64" height="64">
<path d="M55 86C72.6731 86 87 71.6731 87 54C87 36.3269 72.6731 22 55 22C37.3269 22 23 36.3269 23 54C23 71.6731 37.3269 86 55 86Z" fill="white"/>
</mask>
<g mask="url(#mask0_3985_75907)">
<path fill-rule="evenodd" clip-rule="evenodd" d="M49.924 69.235H59.3978L66.9354 63.5883L67.042 63.4788L69.9493 54.1815L67.042 44.8841L59.3978 39.1279H49.9177L42.2735 44.8841L39.3662 54.1815L42.2798 63.4788L49.924 69.235ZM59.1849 68.5665H50.1371L42.8188 63.0357L40.018 54.1826L42.8188 45.3295L50.1371 39.7987H59.1849L66.5095 45.3295L69.3103 54.1826L66.5095 63.0357L59.1849 68.5665Z" fill="#E0E0E0"/>
<path fill-rule="evenodd" clip-rule="evenodd" d="M71.0332 67.6836L66.6158 63.5886L62.305 61.9274L54.6608 62.9254L46.9101 61.9274L42.5993 63.5886L42.3862 62.9254L46.7973 61.1548H46.9101L54.6608 62.2622L62.4178 61.1548L62.5243 61.2642L67.0482 63.0349L71.4592 67.2393L71.0332 67.6836Z" fill="#E0E0E0"/>
<path fill-rule="evenodd" clip-rule="evenodd" d="M59.1849 69.5634L54.6611 63.1441L49.9242 69.5634L46.478 61.7083L47.1234 61.3735L50.1372 68.237L54.6611 61.9272L59.0784 68.237L62.0922 61.3735L66.1838 52.9646L67.1549 63.2535H66.5096L65.7514 55.3984L62.7376 61.7083L59.1849 69.5634Z" fill="#E0E0E0"/>
<path fill-rule="evenodd" clip-rule="evenodd" d="M39.7983 53.8469H69.736V54.5101H39.7983V53.8469Z" fill="#E0E0E0"/>
<path fill-rule="evenodd" clip-rule="evenodd" d="M66.184 55.3986L62.4183 47.7623L59.1852 54.9543L54.6614 46.6549L50.031 54.9543L46.7979 47.7623L43.0322 55.3986L42.1675 45.2191L42.8191 45.1096L43.4645 53.0742L46.7979 46.3265L50.031 53.5185L54.6614 45.3285L59.0787 53.5185L62.4183 46.3265L65.7517 52.9647L66.2906 45.1096H66.9422L66.184 55.3986Z" fill="#E0E0E0"/>
<path fill-rule="evenodd" clip-rule="evenodd" d="M59.0781 40.2366L62.0919 47.2097L62.7373 46.8813L59.1846 38.9103L54.6607 45.4391L49.9239 38.9103L46.5842 46.8813L47.1231 47.2097L50.1369 40.2366L54.6607 46.656L59.0781 40.2366ZM65.7512 55.3988L66.5094 63.2539H67.1547L66.1836 52.965L62.4178 60.8201L59.1847 53.5187L54.6609 61.8181L50.0305 53.5187L46.7974 60.7106L43.0317 52.965L42.167 63.2539H42.8186L43.464 55.3988L46.7974 62.2623L50.0305 54.9545L54.6609 63.2539L59.0782 54.9545L62.4178 62.2623L65.7512 55.3988Z" fill="#E0E0E0"/>
<path fill-rule="evenodd" clip-rule="evenodd" d="M62.4178 47.4347L54.5543 46.3272L46.7973 47.4347L42.3862 45.4387L42.5993 44.7755L46.9101 46.6556L54.5543 45.664L62.4178 46.6556L66.6158 44.7755L66.9416 45.4387L62.4178 47.4347Z" fill="#E0E0E0"/>
<path fill-rule="evenodd" clip-rule="evenodd" d="M50.031 70.2262C50.7438 70.2262 51.3217 69.6324 51.3217 68.8998C51.3217 68.1673 50.7438 67.5735 50.031 67.5735C49.3181 67.5735 48.7402 68.1673 48.7402 68.8998C48.7402 69.6324 49.3181 70.2262 50.031 70.2262Z" fill="#E0E0E0"/>
<path fill-rule="evenodd" clip-rule="evenodd" d="M59.0779 70.2262C59.7907 70.2262 60.3686 69.6324 60.3686 68.8998C60.3686 68.1673 59.7907 67.5735 59.0779 67.5735C58.365 67.5735 57.7871 68.1673 57.7871 68.8998C57.7871 69.6324 58.365 70.2262 59.0779 70.2262Z" fill="#E0E0E0"/>
<path fill-rule="evenodd" clip-rule="evenodd" d="M50.031 40.8978C50.7438 40.8978 51.3217 40.304 51.3217 39.5715C51.3217 38.8389 50.7438 38.2451 50.031 38.2451C49.3181 38.2451 48.7402 38.8389 48.7402 39.5715C48.7402 40.304 49.3181 40.8978 50.031 40.8978Z" fill="#E0E0E0"/>
<path fill-rule="evenodd" clip-rule="evenodd" d="M59.0779 40.8978C59.7907 40.8978 60.3686 40.304 60.3686 39.5715C60.3686 38.8389 59.7907 38.2451 59.0779 38.2451C58.365 38.2451 57.7871 38.8389 57.7871 39.5715C57.7871 40.304 58.365 40.8978 59.0779 40.8978Z" fill="#E0E0E0"/>
<path fill-rule="evenodd" clip-rule="evenodd" d="M66.6164 46.4358C67.3293 46.4358 67.9072 45.842 67.9072 45.1094C67.9072 44.3769 67.3293 43.7831 66.6164 43.7831C65.9036 43.7831 65.3257 44.3769 65.3257 45.1094C65.3257 45.842 65.9036 46.4358 66.6164 46.4358Z" fill="#E0E0E0"/>
<path fill-rule="evenodd" clip-rule="evenodd" d="M42.4929 46.4358C43.2057 46.4358 43.7836 45.842 43.7836 45.1094C43.7836 44.3769 43.2057 43.7831 42.4929 43.7831C41.78 43.7831 41.2021 44.3769 41.2021 45.1094C41.2021 45.842 41.78 46.4358 42.4929 46.4358Z" fill="#E0E0E0"/>
<path fill-rule="evenodd" clip-rule="evenodd" d="M42.4929 64.6946C43.2057 64.6946 43.7836 64.1008 43.7836 63.3682C43.7836 62.6357 43.2057 62.0419 42.4929 62.0419C41.78 62.0419 41.2021 62.6357 41.2021 63.3682C41.2021 64.1008 41.78 64.6946 42.4929 64.6946Z" fill="#E0E0E0"/>
<path fill-rule="evenodd" clip-rule="evenodd" d="M39.799 55.5072C40.5119 55.5072 41.0898 54.9134 41.0898 54.1809C41.0898 53.4483 40.5119 52.8545 39.799 52.8545C39.0862 52.8545 38.5083 53.4483 38.5083 54.1809C38.5083 54.9134 39.0862 55.5072 39.799 55.5072Z" fill="#E0E0E0"/>
<path fill-rule="evenodd" clip-rule="evenodd" d="M69.6296 55.5072C70.3425 55.5072 70.9203 54.9134 70.9203 54.1809C70.9203 53.4483 70.3425 52.8545 69.6296 52.8545C68.9168 52.8545 68.3389 53.4483 68.3389 54.1809C68.3389 54.9134 68.9168 55.5072 69.6296 55.5072Z" fill="#E0E0E0"/>
<path fill-rule="evenodd" clip-rule="evenodd" d="M65.9704 55.5072C66.6833 55.5072 67.2612 54.9134 67.2612 54.1809C67.2612 53.4483 66.6833 52.8545 65.9704 52.8545C65.2576 52.8545 64.6797 53.4483 64.6797 54.1809C64.6797 54.9134 65.2576 55.5072 65.9704 55.5072Z" fill="#E0E0E0"/>
<path fill-rule="evenodd" clip-rule="evenodd" d="M43.2448 55.5072C43.9577 55.5072 44.5356 54.9134 44.5356 54.1809C44.5356 53.4483 43.9577 52.8545 43.2448 52.8545C42.532 52.8545 41.9541 53.4483 41.9541 54.1809C41.9541 54.9134 42.532 55.5072 43.2448 55.5072Z" fill="#E0E0E0"/>
<path fill-rule="evenodd" clip-rule="evenodd" d="M50.031 55.5072C50.7438 55.5072 51.3217 54.9134 51.3217 54.1809C51.3217 53.4483 50.7438 52.8545 50.031 52.8545C49.3181 52.8545 48.7402 53.4483 48.7402 54.1809C48.7402 54.9134 49.3181 55.5072 50.031 55.5072Z" fill="#E0E0E0"/>
<path fill-rule="evenodd" clip-rule="evenodd" d="M59.0779 55.5072C59.7907 55.5072 60.3686 54.9134 60.3686 54.1809C60.3686 53.4483 59.7907 52.8545 59.0779 52.8545C58.365 52.8545 57.7871 53.4483 57.7871 54.1809C57.7871 54.9134 58.365 55.5072 59.0779 55.5072Z" fill="#E0E0E0"/>
<path fill-rule="evenodd" clip-rule="evenodd" d="M55.9352 46.2045C56.0494 45.4814 55.5716 44.8001 54.868 44.6828C54.1643 44.5654 53.5013 45.0564 53.3871 45.7795C53.2729 46.5026 53.7507 47.1839 54.4544 47.3012C55.158 47.4186 55.821 46.9275 55.9352 46.2045Z" fill="#E0E0E0"/>
<path fill-rule="evenodd" clip-rule="evenodd" d="M46.7976 48.4251C47.5104 48.4251 48.0883 47.8312 48.0883 47.0987C48.0883 46.3662 47.5104 45.7723 46.7976 45.7723C46.0847 45.7723 45.5068 46.3662 45.5068 47.0987C45.5068 47.8312 46.0847 48.4251 46.7976 48.4251Z" fill="#E0E0E0"/>
<path fill-rule="evenodd" clip-rule="evenodd" d="M62.4182 48.4251C63.131 48.4251 63.7089 47.8312 63.7089 47.0987C63.7089 46.3662 63.131 45.7723 62.4182 45.7723C61.7053 45.7723 61.1274 46.3662 61.1274 47.0987C61.1274 47.8312 61.7053 48.4251 62.4182 48.4251Z" fill="#E0E0E0"/>
<path fill-rule="evenodd" clip-rule="evenodd" d="M54.6613 63.9155C55.3742 63.9155 55.9521 63.3217 55.9521 62.5892C55.9521 61.8566 55.3742 61.2628 54.6613 61.2628C53.9485 61.2628 53.3706 61.8566 53.3706 62.5892C53.3706 63.3217 53.9485 63.9155 54.6613 63.9155Z" fill="#E0E0E0"/>
<path fill-rule="evenodd" clip-rule="evenodd" d="M46.7976 62.8087C47.5104 62.8087 48.0883 62.2149 48.0883 61.4824C48.0883 60.7498 47.5104 60.156 46.7976 60.156C46.0847 60.156 45.5068 60.7498 45.5068 61.4824C45.5068 62.2149 46.0847 62.8087 46.7976 62.8087Z" fill="#E0E0E0"/>
<path fill-rule="evenodd" clip-rule="evenodd" d="M62.4182 62.8087C63.131 62.8087 63.7089 62.2149 63.7089 61.4824C63.7089 60.7498 63.131 60.156 62.4182 60.156C61.7053 60.156 61.1274 60.7498 61.1274 61.4824C61.1274 62.2149 61.7053 62.8087 62.4182 62.8087Z" fill="#E0E0E0"/>
<path fill-rule="evenodd" clip-rule="evenodd" d="M71.247 69.2352C72.1986 69.2352 72.9701 68.4425 72.9701 67.4646C72.9701 66.4867 72.1986 65.694 71.247 65.694C70.2954 65.694 69.5239 66.4867 69.5239 67.4646C69.5239 68.4425 70.2954 69.2352 71.247 69.2352Z" fill="#E0E0E0"/>
</g>
</g>
<defs>
<filter id="filter0_i_3985_75907" x="-180.84" y="-180.84" width="470.68" height="470.68" filterUnits="userSpaceOnUse" color-interpolation-filters="sRGB">
<feFlood flood-opacity="0" result="BackgroundImageFix"/>
<feBlend mode="normal" in="SourceGraphic" in2="BackgroundImageFix" result="shape"/>
<feColorMatrix in="SourceAlpha" type="matrix" values="0 0 0 0 0 0 0 0 0 0 0 0 0 0 0 0 0 0 127 0" result="hardAlpha"/>
<feOffset dx="3.6268" dy="7.25359"/>
<feGaussianBlur stdDeviation="14.5072"/>
<feComposite in2="hardAlpha" operator="arithmetic" k2="-1" k3="1"/>
<feColorMatrix type="matrix" values="0 0 0 0 0.972549 0 0 0 0 0.972549 0 0 0 0 0.972549 0 0 0 0.06 0"/>
<feBlend mode="normal" in2="shape" result="effect1_innerShadow_3985_75907"/>
</filter>
</defs>
</svg>
