<svg width="109" height="109" viewBox="0 0 109 109" fill="none" xmlns="http://www.w3.org/2000/svg">
<g filter="url(#filter0_i_3985_75905)">
<rect x="0.5" y="108.5" width="108" height="108" rx="54" transform="rotate(-90 0.5 108.5)" fill="#F8F8F8" fill-opacity="0.01"/>
<rect x="1.85203" y="107.148" width="105.296" height="105.296" rx="52.648" transform="rotate(-90 1.85203 107.148)" stroke="#F8F8F8" stroke-opacity="0.1" stroke-width="2.70406"/>
<path opacity="0.2" d="M55 86C72.6731 86 87 71.6731 87 54C87 36.3269 72.6731 22 55 22C37.3269 22 23 36.3269 23 54C23 71.6731 37.3269 86 55 86Z" fill="white"/>
<path d="M46.3976 39.2471C49.8285 39.3277 53.2655 41.1314 54.9384 44.1644C57.6202 39.36 64.5612 37.8021 69.2041 40.6578C73.6826 43.314 75.7351 49.2913 73.8998 54.126C72.8015 57.0704 70.8546 59.6137 68.7169 61.893C64.5267 66.2158 59.7762 69.9622 54.9363 73.5394C52.5976 71.7861 50.2325 70.061 48.0197 68.1484C44.7938 65.4621 41.5821 62.6971 38.9998 59.3739C37.2924 57.147 35.8044 54.6238 35.3983 51.8104C34.9618 48.4227 36.117 44.8516 38.5085 42.3849C40.5285 40.2809 43.4722 39.1141 46.3976 39.2471Z" fill="white" fill-opacity="0.52"/>
<path d="M43.022 55.7533H48.5805L50.0535 59.1652C50.0703 59.2042 50.1267 59.2009 50.1388 59.1601L51.991 52.9487C52.0037 52.9063 52.0634 52.9051 52.0777 52.947L55.1264 61.8863C55.1412 61.9298 55.2037 61.9264 55.2138 61.8816L58.6371 46.6515C58.6473 46.6061 58.711 46.6035 58.7249 46.6479L61.5634 55.7214C61.5693 55.7404 61.5869 55.7533 61.6068 55.7533H66.6649" stroke="white" stroke-width="0.275784"/>
<path fill-rule="evenodd" clip-rule="evenodd" d="M66.7746 57.1659C67.5595 57.1659 68.1957 56.5343 68.1957 55.7552C68.1957 54.9761 67.5595 54.3445 66.7746 54.3445C65.9898 54.3445 65.3535 54.9761 65.3535 55.7552C65.3535 56.5343 65.9898 57.1659 66.7746 57.1659Z" fill="white"/>
</g>
<defs>
<filter id="filter0_i_3985_75905" x="-179.771" y="-179.771" width="468.542" height="468.542" filterUnits="userSpaceOnUse" color-interpolation-filters="sRGB">
<feFlood flood-opacity="0" result="BackgroundImageFix"/>
<feBlend mode="normal" in="SourceGraphic" in2="BackgroundImageFix" result="shape"/>
<feColorMatrix in="SourceAlpha" type="matrix" values="0 0 0 0 0 0 0 0 0 0 0 0 0 0 0 0 0 0 127 0" result="hardAlpha"/>
<feOffset dx="3.60542" dy="7.21083"/>
<feGaussianBlur stdDeviation="14.4217"/>
<feComposite in2="hardAlpha" operator="arithmetic" k2="-1" k3="1"/>
<feColorMatrix type="matrix" values="0 0 0 0 0.972549 0 0 0 0 0.972549 0 0 0 0 0.972549 0 0 0 0.06 0"/>
<feBlend mode="normal" in2="shape" result="effect1_innerShadow_3985_75905"/>
</filter>
</defs>
</svg>
