<svg width="114" height="48" viewBox="0 0 114 48" fill="none" xmlns="http://www.w3.org/2000/svg">
<path d="M28.1888 29.7563C29.8865 29.6726 31.4248 28.5952 31.7335 26.9237C31.9085 25.9758 32 24.9986 32 24C32 15.1634 24.8366 8 16 8C13.276 8 10.7111 8.6807 8.46591 9.88128C6.18402 11.1015 7.47228 13.9063 10.058 13.8073C13.1699 13.688 16.3982 13.6262 19.0081 13.7181C20.3069 13.7638 21.5109 13.8493 22.4941 13.9983C22.984 14.0725 23.4725 14.1701 23.9154 14.3065C24.3057 14.4267 24.8996 14.6459 25.4081 15.0875C26.3713 15.924 26.4865 17.0856 26.2918 17.9215C26.1324 18.6061 25.7665 19.1623 25.5016 19.5183C24.9381 20.2755 24.089 21.0853 23.2216 21.8482C22.0732 22.8583 20.5943 24.0377 19.1278 25.2073C18.3619 25.8182 17.5993 26.4264 16.889 27.0064C15.8192 27.8798 14.8403 28.7095 14.0396 29.461C13.5081 29.9597 13.8001 30.465 14.528 30.4292L28.1888 29.7563Z" fill="#FFC107"/>
<path d="M18.9548 34.371C22.5897 34.371 24.0435 38.3072 20.5588 39.3412C19.114 39.7699 17.5839 40 16 40C7.16344 40 0 32.8366 0 24C0 22.6864 0.158293 21.4098 0.456846 20.1882C0.622778 19.5093 1.22919 19.0434 1.92661 18.9975C4.16619 18.8502 7.16915 18.6738 10.2347 18.5564C13.3102 18.4385 16.4057 18.3818 18.8457 18.4677C19.3183 18.4844 19.4989 19.14 19.1219 19.4253C18.3192 20.0326 17.4248 20.6579 16.5463 21.3581C15.7578 21.9866 14.8649 22.6208 14.0488 23.2871C12.9516 24.1829 11.7793 25.1091 10.8601 25.9718C9.9693 26.8078 9.10453 27.7111 8.53111 28.5946C8.24689 29.0324 7.93534 29.6131 7.79958 30.2888C7.65175 31.0246 7.70305 31.973 8.3148 32.824C8.87523 33.6037 9.66667 33.9605 10.2768 34.1341C10.9033 34.3122 11.5925 34.371 12.2848 34.371H18.9548Z" fill="#FFC107"/>
<path d="M22.6456 18.8861C22.6452 18.8863 22.6386 18.8838 22.6266 18.8781C22.6399 18.8832 22.6459 18.886 22.6456 18.8861Z" fill="#FFC107"/>
<path d="M21.8263 16.5652C21.8269 16.5641 21.8269 16.5642 21.8263 16.5652V16.5652Z" fill="#FFC107"/>
<path d="M11.5388 29.5574C11.5381 29.5572 11.5381 29.5572 11.5388 29.5574V29.5574Z" fill="#FFC107"/>
<path d="M46.3419 31.832H56.6779V35H42.0219V32.152L52.3259 15.928H42.0219V12.76H56.6779V15.608L46.3419 31.832ZM76.5376 17.368L65.7216 43.288H61.9456L65.5296 34.712L58.5856 17.368H62.6496L67.6096 30.808L72.7616 17.368H76.5376Z" fill="#F5F5F5"/>
<path d="M82.9386 19.928C83.472 19.032 84.176 18.3387 85.0506 17.848C85.9466 17.336 87.0026 17.08 88.2186 17.08V20.856H87.2906C85.8613 20.856 84.7733 21.2187 84.0266 21.944C83.3013 22.6693 82.9386 23.928 82.9386 25.72V35H79.2906V17.368H82.9386V19.928ZM93.4279 15.032C92.7665 15.032 92.2119 14.808 91.7639 14.36C91.3159 13.912 91.0919 13.3573 91.0919 12.696C91.0919 12.0347 91.3159 11.48 91.7639 11.032C92.2119 10.584 92.7665 10.36 93.4279 10.36C94.0679 10.36 94.6119 10.584 95.0599 11.032C95.5079 11.48 95.7319 12.0347 95.7319 12.696C95.7319 13.3573 95.5079 13.912 95.0599 14.36C94.6119 14.808 94.0679 15.032 93.4279 15.032ZM95.2199 17.368V35H91.5719V17.368H95.2199ZM107.561 26.072L113.257 35H109.129L105.321 29.016L101.737 35H97.9294L103.625 26.328L97.9294 17.368H102.057L105.865 23.352L109.449 17.368H113.257L107.561 26.072Z" fill="#FFC107"/>
</svg>
