<svg width="48" height="48" viewBox="0 0 48 48" fill="none" xmlns="http://www.w3.org/2000/svg">
<rect x="0.5" y="0.5" width="47" height="47" rx="23.5" fill="#1C1C1C"/>
<rect x="0.5" y="0.5" width="47" height="47" rx="23.5" fill="url(#paint0_linear_3995_20562)" fill-opacity="0.2"/>
<rect x="0.5" y="0.5" width="47" height="47" rx="23.5" stroke="url(#paint1_linear_3995_20562)"/>
<path d="M35.0004 27.22C34.5904 27.22 34.2504 27.56 34.2504 27.97C34.2504 30.93 32.1904 33.41 29.4204 34.06L29.6904 33.61C29.9004 33.25 29.7904 32.79 29.4304 32.58C29.0804 32.37 28.6104 32.48 28.4004 32.84L27.3504 34.59C27.2104 34.82 27.2104 35.11 27.3404 35.34C27.4704 35.58 27.7204 35.72 27.9904 35.72C32.2604 35.72 35.7404 32.24 35.7404 27.97C35.7504 27.56 35.4104 27.22 35.0004 27.22Z" fill="white"/>
<path d="M20 12.22C15.73 12.22 12.25 15.7 12.25 19.97C12.25 20.38 12.59 20.72 13 20.72C13.41 20.72 13.75 20.38 13.75 19.97C13.75 17.01 15.81 14.53 18.58 13.88L18.31 14.33C18.1 14.69 18.21 15.15 18.57 15.36C18.92 15.57 19.39 15.46 19.6 15.1L20.65 13.35C20.78 13.12 20.79 12.84 20.65 12.6C20.52 12.37 20.27 12.22 20 12.22Z" fill="#F5F5F5"/>
<path d="M33.5002 20.67C33.5002 23.75 31.2602 26.29 28.3302 26.76C28.3302 26.75 28.3302 26.75 28.3302 26.74C28.0402 23.01 25.0202 19.97 21.2402 19.67C21.7102 16.74 24.2502 14.5 27.3302 14.5C30.7402 14.5 33.5002 17.26 33.5002 20.67Z" fill="#F5F5F5"/>
<path d="M21.8091 26.2001C21.8091 26.0501 21.6391 25.8201 21.4291 25.8201H19.3691V26.5701H21.4291C21.6391 26.5801 21.8091 26.4101 21.8091 26.2001Z" fill="#F5F5F5"/>
<path d="M21.8291 28.0801H21.4291H19.3691V28.8301H21.8391C22.1591 28.8301 22.3791 28.6301 22.3791 28.4501C22.3791 28.2701 22.1491 28.0801 21.8291 28.0801Z" fill="#F5F5F5"/>
<path d="M26.83 26.8499C26.6 23.8199 24.18 21.3999 21.15 21.1699C20.99 21.1599 20.84 21.1499 20.67 21.1499C17.26 21.1499 14.5 23.9099 14.5 27.3299C14.5 30.7399 17.26 33.4999 20.67 33.4999C24.08 33.4999 26.85 30.7399 26.85 27.3299C26.85 27.1599 26.84 27.0099 26.83 26.8499ZM21.83 30.3299H21.17V30.7099C21.17 31.1199 20.83 31.4599 20.42 31.4599C20.01 31.4599 19.67 31.1199 19.67 30.7099V30.3299H18.62C18.21 30.3299 17.87 29.9899 17.87 29.5799V27.3299V25.0799C17.87 24.6699 18.21 24.3299 18.62 24.3299H19.67V23.9499C19.67 23.5399 20.01 23.1999 20.42 23.1999C20.83 23.1999 21.17 23.5399 21.17 23.9499V24.3299H21.43C22.43 24.3299 23.31 25.2099 23.31 26.2099C23.31 26.4999 23.24 26.7699 23.12 27.0199C23.58 27.3599 23.87 27.8799 23.87 28.4599C23.87 29.4899 22.96 30.3299 21.83 30.3299Z" fill="#F5F5F5"/>
<defs>
<linearGradient id="paint0_linear_3995_20562" x1="10.6667" y1="5.02326" x2="42.0117" y2="37.6495" gradientUnits="userSpaceOnUse">
<stop stop-color="white"/>
<stop offset="0.784" stop-color="#1C1C1C" stop-opacity="0"/>
</linearGradient>
<linearGradient id="paint1_linear_3995_20562" x1="24" y1="0" x2="24" y2="48" gradientUnits="userSpaceOnUse">
<stop stop-color="white" stop-opacity="0.5"/>
<stop offset="1" stop-color="white" stop-opacity="0"/>
</linearGradient>
</defs>
</svg>
