<svg width="49" height="48" viewBox="0 0 49 48" fill="none" xmlns="http://www.w3.org/2000/svg">
<rect x="1" y="0.5" width="47" height="47" rx="23.5" fill="#1C1C1C"/>
<rect x="1" y="0.5" width="47" height="47" rx="23.5" fill="url(#paint0_linear_3995_20556)" fill-opacity="0.2"/>
<rect x="1" y="0.5" width="47" height="47" rx="23.5" stroke="url(#paint1_linear_3995_20556)"/>
<path d="M33.4098 23.1201V18.7301C33.4098 17.9101 32.7898 16.9801 32.0198 16.6701L26.4498 14.3901C25.1998 13.8801 23.7898 13.8801 22.5398 14.3901L16.9698 16.6701C16.2098 16.9801 15.5898 17.9101 15.5898 18.7301V23.1201C15.5898 28.0101 19.1398 32.5901 23.9898 33.9301C24.3198 34.0201 24.6798 34.0201 25.0098 33.9301C29.8598 32.5901 33.4098 28.0101 33.4098 23.1201ZM25.2498 24.8701V27.5001C25.2498 27.9101 24.9098 28.2501 24.4998 28.2501C24.0898 28.2501 23.7498 27.9101 23.7498 27.5001V24.8701C22.7398 24.5501 21.9998 23.6101 21.9998 22.5001C21.9998 21.1201 23.1198 20.0001 24.4998 20.0001C25.8798 20.0001 26.9998 21.1201 26.9998 22.5001C26.9998 23.6201 26.2598 24.5501 25.2498 24.8701Z" fill="white"/>
<defs>
<linearGradient id="paint0_linear_3995_20556" x1="11.1667" y1="5.02326" x2="42.5117" y2="37.6495" gradientUnits="userSpaceOnUse">
<stop stop-color="white"/>
<stop offset="0.784" stop-color="#1C1C1C" stop-opacity="0"/>
</linearGradient>
<linearGradient id="paint1_linear_3995_20556" x1="24.5" y1="0" x2="24.5" y2="48" gradientUnits="userSpaceOnUse">
<stop stop-color="white" stop-opacity="0.5"/>
<stop offset="1" stop-color="white" stop-opacity="0"/>
</linearGradient>
</defs>
</svg>
