<svg width="284" height="90" viewBox="0 0 284 90" fill="none" xmlns="http://www.w3.org/2000/svg">
<path d="M6.40115 78.4794C2.55608 81.7038 0.570312 89.5044 0.570312 89.5044H284V45.4679V0.110107C284 0.110107 276.942 8.37725 273.401 10.4084C267.559 13.7592 265.157 25.4326 262.409 32.5016L254.558 55.0373C254.558 55.0373 251.627 63.8621 246.473 65.6776C238.72 68.4087 236.682 24.0728 228.649 25.4326C220.618 26.7921 218.818 43.5956 212.554 52.6888C206.289 61.782 187.969 59.9183 175.652 50.6186C163.335 41.3189 158.784 53.4531 151.819 57.043C147.344 59.3492 144.462 59.8207 139.563 60.3483C133.024 61.0526 129.182 60.4274 122.814 58.6158C114.181 56.16 110.945 44.4943 102.379 47.2304C98.9057 48.3397 97.3806 50.227 94.5082 52.6888C88.8777 57.5144 88.4046 63.589 82.4792 67.9443C81.4667 68.6885 80.2705 69.3804 79.0136 70.0089C73.0671 72.9824 66.1177 70.3086 60.3733 66.9614C56.5842 64.7535 51.6444 62.8404 45.8166 62.7372C41.5098 62.6609 37.9561 65.705 36.1023 69.5931L34.0253 73.9493C32.922 76.2632 30.2399 77.3789 27.7497 76.7704C21.9996 75.3654 11.9322 73.8411 6.40115 78.4794Z" fill="url(#paint0_linear_3996_22695)"/>
<defs>
<linearGradient id="paint0_linear_3996_22695" x1="155.061" y1="91.7061" x2="154.568" y2="-304.614" gradientUnits="userSpaceOnUse">
<stop stop-color="#3D8C40" stop-opacity="0"/>
<stop offset="1" stop-color="#3D8C40"/>
</linearGradient>
</defs>
</svg>
