<svg width="285" height="81" viewBox="0 0 285 81" fill="none" xmlns="http://www.w3.org/2000/svg">
<path d="M0 80.5045C0 80.5045 3.55835 72.7273 7.40338 69.5126C12.9371 64.8861 23.0116 66.4096 28.7603 67.8109C31.2468 68.4171 33.9237 67.3038 35.0279 64.9949L37.099 60.6641C38.9562 56.7805 42.51 53.7424 46.8141 53.8177C52.6497 53.9199 57.595 55.8314 61.3865 58.036C67.1222 61.3711 74.0553 64.0342 79.995 61.0777C81.2592 60.4484 82.4628 59.7551 83.4807 59.0092C89.406 54.6671 89.8791 48.6108 95.5095 43.7997C98.3819 41.3453 99.907 39.4637 103.38 38.3577C111.946 35.6298 115.182 47.2604 123.815 49.7089C130.183 51.515 134.025 52.1383 140.564 51.4361C145.463 50.9101 148.345 50.44 152.819 48.1408C159.785 44.5617 164.336 32.4639 176.653 41.7357C188.97 51.0074 207.289 52.8655 213.554 43.7997C219.818 34.7338 221.618 17.9809 229.649 16.6255C237.682 15.2698 239.72 59.4722 247.473 56.7493C252.626 54.9393 255.558 46.1411 255.558 46.1411L263.409 23.6733C266.157 16.6255 267.774 5.42516 273.616 2.0844C277.157 0.0593671 284.5 9.99991 284.5 9.99991" stroke="#E53935" stroke-width="2"/>
</svg>
