<svg width="285" height="91" viewBox="0 0 285 91" fill="none" xmlns="http://www.w3.org/2000/svg">
<path d="M0 90.5045C0 90.5045 3.55835 82.7274 7.40338 79.5127C12.9371 74.8861 23.0116 76.4096 28.7603 77.811C31.2469 78.4171 33.9237 77.3039 35.0279 74.9949L37.099 70.6641C38.9562 66.7806 42.51 63.7424 46.8141 63.8178C52.6497 63.92 57.595 65.8314 61.3865 68.0361C67.1222 71.3712 74.0553 74.0343 79.995 71.0777C81.2592 70.4485 82.4628 69.7552 83.4807 69.0093C89.406 64.6672 89.8791 58.6108 95.5095 53.7997C98.3819 51.3453 99.907 49.4637 103.38 48.3578C111.946 45.6299 115.182 57.2605 123.815 59.7089C130.183 61.5151 134.025 62.1383 140.564 61.4362C145.463 60.9101 148.345 60.4401 152.819 58.1409C159.785 54.5618 164.336 42.464 176.653 51.7357C188.97 61.0075 207.289 62.8656 213.554 53.7997C219.818 44.7339 221.618 27.981 229.649 26.6256C237.682 25.2699 239.72 69.4723 247.473 66.7494C252.626 64.9394 255.558 56.1412 255.558 56.1412L263.409 33.6733C266.157 26.6256 267.774 15.4252 273.616 12.0845C277.157 10.0594 285 0.669678 285 0.669678" stroke="#388E3C" stroke-width="2"/>
</svg>
