<svg width="33" height="32" viewBox="0 0 33 32" fill="none" xmlns="http://www.w3.org/2000/svg">
<g clip-path="url(#clip0_3985_76019)">
<path d="M16.3999 32C25.2365 32 32.3999 24.8366 32.3999 16C32.3999 7.16344 25.2365 0 16.3999 0C7.56335 0 0.399902 7.16344 0.399902 16C0.399902 24.8366 7.56335 32 16.3999 32Z" fill="#23292F"/>
<path d="M23.4699 8H26.3599L20.3449 13.957C19.2933 14.9931 17.8762 15.5739 16.3999 15.5739C14.9236 15.5739 13.5065 14.9931 12.4549 13.957L6.4349 8H9.3299L13.8999 12.523C14.5654 13.1799 15.4628 13.5482 16.3979 13.5482C17.333 13.5482 18.2304 13.1799 18.8959 12.523L23.4699 8ZM9.2949 24.563H6.3999L12.4549 18.57C13.5065 17.5339 14.9236 16.9531 16.3999 16.9531C17.8762 16.9531 19.2933 17.5339 20.3449 18.57L26.3999 24.562H23.5049L18.8999 20C18.2344 19.3431 17.337 18.9748 16.4019 18.9748C15.4668 18.9748 14.5694 19.3431 13.9039 20L9.2939 24.563H9.2949Z" fill="white"/>
</g>
<defs>
<clipPath id="clip0_3985_76019">
<rect width="32" height="32" fill="white" transform="translate(0.399902)"/>
</clipPath>
</defs>
</svg>
