<svg width="16" height="16" viewBox="0 0 16 16" fill="none" xmlns="http://www.w3.org/2000/svg">
<path d="M8 10.5C6.62 10.5 5.5 9.38 5.5 8C5.5 6.62 6.62 5.5 8 5.5C9.38 5.5 10.5 6.62 10.5 8C10.5 9.38 9.38 10.5 8 10.5ZM8 6.5C7.17333 6.5 6.5 7.17333 6.5 8C6.5 8.82667 7.17333 9.5 8 9.5C8.82667 9.5 9.5 8.82667 9.5 8C9.5 7.17333 8.82667 6.5 8 6.5Z" fill="#F5F5F5"/>
<path d="M7.21289 13.2043C7.4681 12.9434 7.74643 12.8264 8.00098 12.8264C8.36447 12.8266 8.7744 13.055 9.09375 13.6096L9.09473 13.6106L9.16797 13.7375V13.7366C9.18631 13.7685 9.20537 13.7998 9.22656 13.8293M7.21289 13.2043C7.42146 12.9985 7.68333 12.8568 7.99707 12.8567C8.49206 12.8567 8.85718 13.2104 9.08984 13.6096L9.16895 13.7424L9.22656 13.8293M7.21289 13.2043C7.18372 13.2342 7.15444 13.2654 7.12598 13.2991C7.15414 13.2666 7.18248 13.2344 7.21289 13.2043ZM9.22656 13.8293C9.239 13.8464 9.25332 13.8619 9.2666 13.8782C9.25339 13.8619 9.23887 13.8465 9.22656 13.8293ZM14.1973 6.427C14.491 6.6594 14.6807 7.01833 14.6807 7.42017V8.59302C14.6807 9.29018 14.1112 9.86055 13.4141 9.8606C13.0003 9.8606 12.5089 9.96697 12.2402 10.3362L12.1895 10.4143C11.9336 10.8511 12.0986 11.3748 12.3203 11.7542V11.7551C12.4895 12.0499 12.5346 12.3926 12.4453 12.7122L12.4434 12.7209C12.3576 13.0493 12.1501 13.3177 11.8545 13.4846L11.8525 13.4866L10.7002 14.1448C10.5182 14.2444 10.3295 14.2932 10.1406 14.2932C10.0503 14.2932 9.95274 14.2803 9.84473 14.2551C9.70929 14.217 9.58572 14.1565 9.47656 14.0774C9.58884 14.1579 9.71584 14.218 9.85254 14.2522C10.1257 14.3205 10.4205 14.2899 10.6768 14.1389L10.6777 14.1399L11.8311 13.4729L11.8301 13.4719C12.1135 13.3083 12.3348 13.036 12.4238 12.7024C12.5103 12.378 12.4687 12.0344 12.3008 11.7434L12.2998 11.7424L12.1953 11.5403C11.986 11.0783 12.0101 10.678 12.168 10.4016C12.3458 10.0905 12.7526 9.84703 13.3936 9.84692C14.0963 9.84692 14.661 9.28303 14.6611 8.58032V7.40649C14.661 7.01427 14.4811 6.66029 14.1973 6.427ZM6.75 13.8567C6.5979 14.0563 6.39145 14.1952 6.15527 14.2561L6.15039 14.2571C5.86015 14.3354 5.56712 14.2939 5.31836 14.1448L5.31055 14.1399L5.2207 14.0881L5.3125 14.1409V14.1399C5.57285 14.2955 5.87458 14.3279 6.14648 14.2571L6.14551 14.2561C6.39854 14.1918 6.60427 14.043 6.75 13.8567ZM7.02344 13.428C7.03159 13.4165 7.04059 13.4059 7.04883 13.3948C7.04041 13.4059 7.03162 13.4167 7.02344 13.428ZM3.69727 13.012C3.7164 13.0453 3.73691 13.0775 3.75879 13.1086C3.73694 13.0774 3.71635 13.0453 3.69727 13.012ZM3.58496 12.0002C3.51341 12.2283 3.50851 12.4738 3.57129 12.7092C3.57588 12.7264 3.58167 12.7432 3.58691 12.76C3.58151 12.7431 3.57509 12.7265 3.57031 12.7092C3.50808 12.4673 3.51448 12.2251 3.58496 12.0002ZM3.71484 11.7083C3.70769 11.7211 3.70283 11.7354 3.69531 11.7483L3.69434 11.7502C3.6787 11.7774 3.66482 11.8053 3.65137 11.8333L3.69434 11.7493L3.69531 11.7473C3.7025 11.7347 3.70788 11.721 3.71484 11.7083ZM3.8877 11.302C3.87695 11.3387 3.86443 11.3756 3.85059 11.4133C3.86432 11.3764 3.87651 11.3393 3.8877 11.302ZM3.92676 11.1438C3.92292 11.1648 3.91796 11.1858 3.91309 11.2073C3.91809 11.1861 3.92271 11.165 3.92676 11.1438ZM3.94824 10.9768C3.94741 10.9914 3.94569 11.006 3.94434 11.0208C3.94576 11.0062 3.94731 10.9916 3.94824 10.9768ZM3.94629 10.8137C3.94703 10.8231 3.94773 10.8325 3.94824 10.842C3.94775 10.8326 3.94703 10.8232 3.94629 10.8137ZM3.73438 10.2795C3.74342 10.2902 3.75233 10.3008 3.76074 10.3118C3.75226 10.3007 3.74326 10.2901 3.73438 10.2795ZM3.49316 10.0745C3.51346 10.087 3.53288 10.1001 3.55176 10.1135C3.53261 10.0998 3.51315 10.0869 3.49316 10.0745ZM3.33887 9.99341C3.3629 10.004 3.38662 10.0141 3.40918 10.0256C3.38622 10.0139 3.36256 10.0038 3.33887 9.99341ZM3.17578 9.93286C3.20117 9.94055 3.2259 9.94859 3.25 9.95728C3.22547 9.94852 3.20077 9.94035 3.17578 9.93286ZM2.99902 9.88989C3.0219 9.89421 3.04438 9.89852 3.06641 9.90356C3.04402 9.89848 3.02153 9.89412 2.99902 9.88989ZM2.7998 9.86255C2.82569 9.86476 2.85099 9.86828 2.87598 9.87134C2.85048 9.8682 2.82515 9.86475 2.7998 9.86255ZM1.34082 8.71509C1.34572 8.76349 1.35404 8.81094 1.36426 8.85767C1.35399 8.81098 1.34574 8.76351 1.34082 8.71509ZM1.35938 7.16138C1.34312 7.24278 1.33399 7.32694 1.33398 7.41333C1.33399 7.32711 1.34278 7.24286 1.35938 7.16138ZM2.87598 6.12817C2.85098 6.13123 2.8257 6.13475 2.7998 6.13696C2.82516 6.13477 2.85047 6.13131 2.87598 6.12817ZM3.0752 6.09302C3.04843 6.0993 3.0212 6.1054 2.99316 6.1106C3.02065 6.10552 3.0479 6.09937 3.0752 6.09302ZM3.25195 6.04126C3.22551 6.05084 3.19793 6.05827 3.16992 6.06665C3.19744 6.0585 3.22499 6.05094 3.25195 6.04126ZM3.41113 5.9729C3.3862 5.98576 3.35975 5.99643 3.33301 6.00806C3.35932 5.9967 3.38572 5.98597 3.41113 5.9729ZM3.55762 5.8811C3.5357 5.89693 3.51313 5.91231 3.48926 5.927C3.5127 5.91255 3.53532 5.89731 3.55762 5.8811ZM12.502 5.91919C12.4796 5.90533 12.4581 5.89108 12.4375 5.87622C12.4581 5.8919 12.4803 5.90508 12.502 5.91919ZM11.9541 2.59204C12.19 2.75885 12.3615 3.0013 12.4434 3.29224V3.29321C12.5311 3.62983 12.4867 3.9681 12.3203 4.25806L12.3193 4.26001C12.2027 4.46527 12.1146 4.68368 12.0791 4.90161C12.0439 5.11774 12.0555 5.37129 12.1895 5.59985C12.2473 5.69848 12.32 5.78036 12.4023 5.84888C12.3025 5.77045 12.2233 5.68203 12.168 5.58521C11.9876 5.2693 11.9819 4.79101 12.2998 4.24438L12.3008 4.24341C12.4686 3.95241 12.5103 3.60884 12.4238 3.28442C12.3467 2.99526 12.1768 2.75938 11.9541 2.59204ZM3.76855 5.677C3.75609 5.69374 3.74244 5.70966 3.72852 5.72583C3.7421 5.70989 3.7559 5.69406 3.76855 5.677ZM3.82617 5.59204C3.82443 5.59509 3.8221 5.59779 3.82031 5.60083C3.82189 5.5982 3.82364 5.59567 3.8252 5.59302C3.82694 5.59005 3.8274 5.58623 3.8291 5.58325C3.82765 5.58585 3.82765 5.58946 3.82617 5.59204ZM3.86523 4.62329C3.86941 4.63547 3.87408 4.64735 3.87793 4.65942C3.87396 4.64726 3.86946 4.63535 3.86523 4.62329ZM3.78613 4.427C3.79518 4.44625 3.80328 4.46559 3.81152 4.48462C3.80306 4.4653 3.79508 4.44589 3.78613 4.427ZM3.69434 4.25024L3.69531 4.25122C3.7046 4.2672 3.71196 4.28419 3.7207 4.30005C3.71078 4.28214 3.70159 4.26365 3.69141 4.24634C3.67676 4.22054 3.66408 4.19383 3.65137 4.16724C3.66479 4.19512 3.67874 4.22321 3.69434 4.25024ZM8.34668 3.09204C8.22694 3.1406 8.10891 3.16722 7.99414 3.16724C7.67591 3.16724 7.32197 2.99198 7.02441 2.57642L6.90039 2.38403L6.83203 2.25903L6.82812 2.25122L6.82324 2.24438L6.76172 2.15161C6.74088 2.12357 6.71843 2.09712 6.69531 2.07153C6.74784 2.12855 6.7958 2.19149 6.83691 2.26099L6.83887 2.26392L6.91406 2.38989V2.39087C7.14655 2.79274 7.51304 3.14966 8.01074 3.14966C8.13039 3.14965 8.24229 3.12904 8.34668 3.09204ZM4.16406 2.52075C3.88064 2.68434 3.66028 2.95769 3.57129 3.29126C3.53885 3.4129 3.52379 3.53722 3.52734 3.6604C3.52359 3.53664 3.53779 3.41134 3.57031 3.28833L3.57129 3.28638C3.657 2.95781 3.86441 2.68868 4.16016 2.52173L4.16211 2.52075L4.36328 2.40552L4.16406 2.52075ZM3.83691 11.4514C3.81953 11.4958 3.80014 11.5406 3.77832 11.5862C3.79952 11.5416 3.81903 11.4967 3.83691 11.4514ZM8.44629 3.04712C8.41809 3.06199 8.38957 3.07423 8.36133 3.08618C8.39069 3.07526 8.41815 3.06052 8.44629 3.04712Z" fill="#F5F5F5" stroke="#F5F5F5"/>
</svg>
