<svg width="33" height="32" viewBox="0 0 33 32" fill="none" xmlns="http://www.w3.org/2000/svg">
<g clip-path="url(#clip0_3985_76004)">
<path d="M16.6001 32C25.4367 32 32.6001 24.8366 32.6001 16C32.6001 7.16344 25.4367 0 16.6001 0C7.76354 0 0.600098 7.16344 0.600098 16C0.600098 24.8366 7.76354 32 16.6001 32Z" fill="#26A17B"/>
<path fill-rule="evenodd" clip-rule="evenodd" d="M18.5219 17.3833V17.3813C18.4119 17.3893 17.8449 17.4233 16.5799 17.4233C15.5699 17.4233 14.8589 17.3933 14.6089 17.3813V17.3843C10.7209 17.2133 7.8189 16.5363 7.8189 15.7263C7.8189 14.9173 10.7209 14.2403 14.6089 14.0663V16.7103C14.8629 16.7283 15.5909 16.7713 16.5969 16.7713C17.8039 16.7713 18.4089 16.7213 18.5219 16.7113V14.0683C22.4019 14.2413 25.2969 14.9183 25.2969 15.7263C25.2969 16.5363 22.4019 17.2113 18.5219 17.3833ZM18.5219 13.7933V11.4273H23.9359V7.81934H9.1949V11.4273H14.6089V13.7923C10.2089 13.9943 6.8999 14.8663 6.8999 15.9103C6.8999 16.9543 10.2089 17.8253 14.6089 18.0283V25.6103H18.5219V18.0263C22.9149 17.8243 26.2159 16.9533 26.2159 15.9103C26.2159 14.8673 22.9149 13.9963 18.5219 13.7933Z" fill="white"/>
</g>
<defs>
<clipPath id="clip0_3985_76004">
<rect width="32" height="32" fill="white" transform="translate(0.600098)"/>
</clipPath>
</defs>
</svg>
