<svg width="16" height="16" viewBox="0 0 16 16" fill="none" xmlns="http://www.w3.org/2000/svg">
<g clip-path="url(#clip0_6650_8977)">
<mask id="path-1-inside-1_6650_8977" fill="white">
<path d="M8 10.9333H1.5C1.22667 10.9333 1 10.7067 1 10.4333C1 10.16 1.22667 9.93335 1.5 9.93335H8C8.27333 9.93335 8.5 10.16 8.5 10.4333C8.5 10.7067 8.27333 10.9333 8 10.9333Z"/>
</mask>
<path d="M8 9.93335H1.5V11.9333H8V9.93335ZM1.5 9.93335C1.77895 9.93335 2 10.1544 2 10.4333H0C0 11.259 0.674382 11.9333 1.5 11.9333V9.93335ZM2 10.4333C2 10.7123 1.77895 10.9333 1.5 10.9333V8.93335C0.674382 8.93335 0 9.60773 0 10.4333H2ZM1.5 10.9333H8V8.93335H1.5V10.9333ZM8 10.9333C7.72105 10.9333 7.5 10.7123 7.5 10.4333H9.5C9.5 9.60773 8.82562 8.93335 8 8.93335V10.9333ZM7.5 10.4333C7.5 10.1544 7.72105 9.93335 8 9.93335V11.9333C8.82562 11.9333 9.5 11.259 9.5 10.4333H7.5Z" fill="#F5F5F5" mask="url(#path-1-inside-1_6650_8977)"/>
<path d="M3.94029 13.3734C3.81362 13.3734 3.68698 13.3268 3.58698 13.2268L1.14695 10.7868C0.95362 10.5935 0.95362 10.2735 1.14695 10.0801L3.58698 7.64012C3.78031 7.44678 4.10031 7.44678 4.29364 7.64012C4.48697 7.83345 4.48697 8.15345 4.29364 8.34678L2.20697 10.4335L4.29364 12.5201C4.48697 12.7134 4.48697 13.0334 4.29364 13.2268C4.19364 13.3268 4.06696 13.3734 3.94029 13.3734Z" fill="#F5F5F5"/>
<path d="M14.5 6.06006H8C7.72667 6.06006 7.5 5.83339 7.5 5.56006C7.5 5.28673 7.72667 5.06006 8 5.06006H14.5C14.7733 5.06006 15 5.28673 15 5.56006C15 5.83339 14.7733 6.06006 14.5 6.06006Z" fill="#F5F5F5"/>
<path d="M12.0609 8.49991C11.9342 8.49991 11.8075 8.45324 11.7075 8.35324C11.5142 8.15991 11.5142 7.83991 11.7075 7.64658L13.7942 5.55991L11.7075 3.47325C11.5142 3.27991 11.5142 2.95992 11.7075 2.76658C11.9008 2.57325 12.2208 2.57325 12.4142 2.76658L14.8542 5.20657C15.0475 5.39991 15.0475 5.71992 14.8542 5.91325L12.4142 8.35324C12.3208 8.44658 12.1942 8.49991 12.0609 8.49991Z" fill="#F5F5F5"/>
</g>
<defs>
<clipPath id="clip0_6650_8977">
<rect width="16" height="16" fill="white"/>
</clipPath>
</defs>
</svg>
