<svg width="621" height="193" viewBox="0 0 621 193" fill="none" xmlns="http://www.w3.org/2000/svg">
<path d="M0 80.9293C35.0062 80.9293 33.5676 42.5217 60.4216 42.5217C87.2757 42.5217 98.7846 192 121.323 192C143.861 192 155.37 123.489 174.551 123.489C193.733 123.489 193.253 70.0299 223.944 70.0299C254.634 70.0299 260.388 80.9293 285.324 80.9293C310.26 80.9293 310.26 117.78 334.717 117.78C359.173 117.78 356.296 166.049 387.945 166.049C419.595 166.049 422.951 117.78 441.174 117.78C459.396 117.78 464.192 1 497.28 1C530.368 1 520.777 176.948 554.824 176.948C588.871 176.948 577.362 80.9293 621 80.9293" stroke="#388E3C" stroke-width="1.66528"/>
</svg>
