<svg width="622" height="142" viewBox="0 0 622 142" fill="none" xmlns="http://www.w3.org/2000/svg">
<path d="M0 76.0543C35.0625 76.0543 33.6216 136.852 60.5189 136.852C87.4162 136.852 98.9436 76.0543 121.518 76.0543C144.093 76.0543 155.62 124.407 174.832 124.407C194.045 124.407 193.564 117.667 224.304 117.667C255.044 117.667 253.169 84.3075 278.145 84.3075C303.121 84.3075 310.76 46.6296 335.256 46.6296C359.751 46.6296 356.87 1 388.57 1C420.27 1 423.632 141 441.884 141C460.136 141 464.939 37.2963 498.08 37.2963C531.222 37.2963 521.615 41.963 555.717 41.963C589.819 41.963 578.292 8.77778 622 8.77778" stroke="#E53935" stroke-width="1.66528"/>
</svg>
